<?xml version="1.0" encoding="UTF-8" standalone="no"?>
<!DOCTYPE svg PUBLIC "-//W3C//DTD SVG 1.1//EN"
 "http://www.w3.org/Graphics/SVG/1.1/DTD/svg11.dtd">
<!-- Generated by graphviz version 2.40.1 (20161225.0304)
 -->
<!-- Title: UmlClassDiagram Pages: 1 -->
<svg width="1805pt" height="1258pt"
 viewBox="0.00 0.00 1804.95 1257.60" xmlns="http://www.w3.org/2000/svg" xmlns:xlink="http://www.w3.org/1999/xlink">
<g id="graph0" class="graph" transform="scale(1 1) rotate(0) translate(4 1253.6)">
<title>UmlClassDiagram</title>
<polygon fill="#ffffff" stroke="transparent" points="-4,4 -4,-1253.6 1800.9479,-1253.6 1800.9479,4 -4,4"/>
<!-- 5 -->
<g id="node1" class="node">
<title>5</title>
<polygon fill="#f2f2f2" stroke="#000000" points="872.0028,-288.3 872.0028,-413.1 1159.39,-413.1 1159.39,-288.3 872.0028,-288.3"/>
<text text-anchor="middle" x="1015.6964" y="-396.5" font-family="Times,serif" font-size="14.00" fill="#000000">&lt;&lt;Abstract&gt;&gt;</text>
<text text-anchor="middle" x="1015.6964" y="-379.7" font-family="Times,serif" font-size="14.00" fill="#000000">ERC20Burnable</text>
<polyline fill="none" stroke="#000000" points="872.0028,-371.5 1159.39,-371.5 "/>
<text text-anchor="middle" x="1015.6964" y="-354.9" font-family="Times,serif" font-size="14.00" fill="#000000"> </text>
<polyline fill="none" stroke="#000000" points="872.0028,-346.7 1159.39,-346.7 "/>
<text text-anchor="start" x="880.0028" y="-330.1" font-family="Times,serif" font-size="14.00" fill="#000000">Public:</text>
<text text-anchor="start" x="880.0028" y="-313.3" font-family="Times,serif" font-size="14.00" fill="#000000"> &#160;&#160;&#160;burn(amount: uint256)</text>
<text text-anchor="start" x="880.0028" y="-296.5" font-family="Times,serif" font-size="14.00" fill="#000000"> &#160;&#160;&#160;burnFrom(account: address, amount: uint256)</text>
</g>
<!-- 0 -->
<g id="node2" class="node">
<title>0</title>
<polygon fill="#f2f2f2" stroke="#000000" points="989.6241,-1065.5 989.6241,-1190.3 1207.7687,-1190.3 1207.7687,-1065.5 989.6241,-1065.5"/>
<text text-anchor="middle" x="1098.6964" y="-1173.7" font-family="Times,serif" font-size="14.00" fill="#000000">&lt;&lt;Abstract&gt;&gt;</text>
<text text-anchor="middle" x="1098.6964" y="-1156.9" font-family="Times,serif" font-size="14.00" fill="#000000">Context</text>
<polyline fill="none" stroke="#000000" points="989.6241,-1148.7 1207.7687,-1148.7 "/>
<text text-anchor="middle" x="1098.6964" y="-1132.1" font-family="Times,serif" font-size="14.00" fill="#000000"> </text>
<polyline fill="none" stroke="#000000" points="989.6241,-1123.9 1207.7687,-1123.9 "/>
<text text-anchor="start" x="997.6241" y="-1107.3" font-family="Times,serif" font-size="14.00" fill="#000000">Internal:</text>
<text text-anchor="start" x="997.6241" y="-1090.5" font-family="Times,serif" font-size="14.00" fill="#000000"> &#160;&#160;&#160;_msgSender(): (payable: address)</text>
<text text-anchor="start" x="997.6241" y="-1073.7" font-family="Times,serif" font-size="14.00" fill="#000000"> &#160;&#160;&#160;_msgData(): bytes</text>
</g>
<!-- 5&#45;&gt;0 -->
<g id="edge1" class="edge">
<title>5&#45;&gt;0</title>
<path fill="none" stroke="#000000" d="M1054.8171,-413.2419C1064.8203,-432.3054 1074.2738,-453.7924 1079.6964,-474.8 1106.3081,-577.8961 1104.1072,-881.0028 1101.0409,-1035.3317"/>
<polygon fill="none" stroke="#000000" points="1090.541,-1035.2195 1100.3938,-1065.4382 1111.5362,-1035.6708 1090.541,-1035.2195"/>
</g>
<!-- 2 -->
<g id="node3" class="node">
<title>2</title>
<polygon fill="#f2f2f2" stroke="#000000" points="0,-1015.1 0,-1240.7 357.3928,-1240.7 357.3928,-1015.1 0,-1015.1"/>
<text text-anchor="middle" x="178.6964" y="-1224.1" font-family="Times,serif" font-size="14.00" fill="#000000">&lt;&lt;Library&gt;&gt;</text>
<text text-anchor="middle" x="178.6964" y="-1207.3" font-family="Times,serif" font-size="14.00" fill="#000000">SafeMath</text>
<polyline fill="none" stroke="#000000" points="0,-1199.1 357.3928,-1199.1 "/>
<text text-anchor="middle" x="178.6964" y="-1182.5" font-family="Times,serif" font-size="14.00" fill="#000000"> </text>
<polyline fill="none" stroke="#000000" points="0,-1174.3 357.3928,-1174.3 "/>
<text text-anchor="start" x="8" y="-1157.7" font-family="Times,serif" font-size="14.00" fill="#000000">Internal:</text>
<text text-anchor="start" x="8" y="-1140.9" font-family="Times,serif" font-size="14.00" fill="#000000"> &#160;&#160;&#160;add(a: uint256, b: uint256): uint256</text>
<text text-anchor="start" x="8" y="-1124.1" font-family="Times,serif" font-size="14.00" fill="#000000"> &#160;&#160;&#160;sub(a: uint256, b: uint256): uint256</text>
<text text-anchor="start" x="8" y="-1107.3" font-family="Times,serif" font-size="14.00" fill="#000000"> &#160;&#160;&#160;sub(a: uint256, b: uint256, errorMessage: string): uint256</text>
<text text-anchor="start" x="8" y="-1090.5" font-family="Times,serif" font-size="14.00" fill="#000000"> &#160;&#160;&#160;mul(a: uint256, b: uint256): uint256</text>
<text text-anchor="start" x="8" y="-1073.7" font-family="Times,serif" font-size="14.00" fill="#000000"> &#160;&#160;&#160;div(a: uint256, b: uint256): uint256</text>
<text text-anchor="start" x="8" y="-1056.9" font-family="Times,serif" font-size="14.00" fill="#000000"> &#160;&#160;&#160;div(a: uint256, b: uint256, errorMessage: string): uint256</text>
<text text-anchor="start" x="8" y="-1040.1" font-family="Times,serif" font-size="14.00" fill="#000000"> &#160;&#160;&#160;mod(a: uint256, b: uint256): uint256</text>
<text text-anchor="start" x="8" y="-1023.3" font-family="Times,serif" font-size="14.00" fill="#000000"> &#160;&#160;&#160;mod(a: uint256, b: uint256, errorMessage: string): uint256</text>
</g>
<!-- 5&#45;&gt;2 -->
<g id="edge3" class="edge">
<title>5&#45;&gt;2</title>
<path fill="none" stroke="#000000" stroke-dasharray="5,2" d="M919.5157,-413.2108C901.2096,-423.0264 881.7911,-432.1185 862.6964,-438.8 762.1335,-473.9883 711.6628,-411.8643 625.6964,-474.8 427.6594,-619.7821 536.7854,-779.9742 381.6964,-970.2 371.0294,-983.2837 359.0826,-995.944 346.4672,-1008.0203"/>
<polygon fill="#000000" stroke="#000000" points="343.8617,-1005.6656 338.9668,-1015.0619 348.653,-1010.769 343.8617,-1005.6656"/>
</g>
<!-- 4 -->
<g id="node5" class="node">
<title>4</title>
<polygon fill="#f2f2f2" stroke="#000000" points="635.1465,-475.3 635.1465,-969.7 1070.2463,-969.7 1070.2463,-475.3 635.1465,-475.3"/>
<text text-anchor="middle" x="852.6964" y="-953.1" font-family="Times,serif" font-size="14.00" fill="#000000">ERC20</text>
<polyline fill="none" stroke="#000000" points="635.1465,-944.9 1070.2463,-944.9 "/>
<text text-anchor="start" x="643.1465" y="-928.3" font-family="Times,serif" font-size="14.00" fill="#000000">Private:</text>
<text text-anchor="start" x="643.1465" y="-911.5" font-family="Times,serif" font-size="14.00" fill="#000000"> &#160;&#160;_balances: mapping(address=&gt;uint256)</text>
<text text-anchor="start" x="643.1465" y="-894.7" font-family="Times,serif" font-size="14.00" fill="#000000"> &#160;&#160;_allowances: mapping(address=&gt;mapping(address=&gt;uint256))</text>
<text text-anchor="start" x="643.1465" y="-877.9" font-family="Times,serif" font-size="14.00" fill="#000000"> &#160;&#160;_totalSupply: uint256</text>
<text text-anchor="start" x="643.1465" y="-861.1" font-family="Times,serif" font-size="14.00" fill="#000000"> &#160;&#160;_name: string</text>
<text text-anchor="start" x="643.1465" y="-844.3" font-family="Times,serif" font-size="14.00" fill="#000000"> &#160;&#160;_symbol: string</text>
<text text-anchor="start" x="643.1465" y="-827.5" font-family="Times,serif" font-size="14.00" fill="#000000"> &#160;&#160;_decimals: uint8</text>
<polyline fill="none" stroke="#000000" points="635.1465,-819.3 1070.2463,-819.3 "/>
<text text-anchor="start" x="643.1465" y="-802.7" font-family="Times,serif" font-size="14.00" fill="#000000">Internal:</text>
<text text-anchor="start" x="643.1465" y="-785.9" font-family="Times,serif" font-size="14.00" fill="#000000"> &#160;&#160;&#160;_transfer(sender: address, recipient: address, amount: uint256)</text>
<text text-anchor="start" x="643.1465" y="-769.1" font-family="Times,serif" font-size="14.00" fill="#000000"> &#160;&#160;&#160;_mint(account: address, amount: uint256)</text>
<text text-anchor="start" x="643.1465" y="-752.3" font-family="Times,serif" font-size="14.00" fill="#000000"> &#160;&#160;&#160;_burn(account: address, amount: uint256)</text>
<text text-anchor="start" x="643.1465" y="-735.5" font-family="Times,serif" font-size="14.00" fill="#000000"> &#160;&#160;&#160;_approve(owner: address, spender: address, amount: uint256)</text>
<text text-anchor="start" x="643.1465" y="-718.7" font-family="Times,serif" font-size="14.00" fill="#000000"> &#160;&#160;&#160;_setupDecimals(decimals_: uint8)</text>
<text text-anchor="start" x="643.1465" y="-701.9" font-family="Times,serif" font-size="14.00" fill="#000000"> &#160;&#160;&#160;_beforeTokenTransfer(from: address, to: address, amount: uint256)</text>
<text text-anchor="start" x="643.1465" y="-685.1" font-family="Times,serif" font-size="14.00" fill="#000000">Public:</text>
<text text-anchor="start" x="643.1465" y="-668.3" font-family="Times,serif" font-size="14.00" fill="#000000"> &#160;&#160;&#160;transfer(recipient: address, amount: uint256): bool</text>
<text text-anchor="start" x="643.1465" y="-651.5" font-family="Times,serif" font-size="14.00" fill="#000000"> &#160;&#160;&#160;constructor(name: string, symbol: string)</text>
<text text-anchor="start" x="643.1465" y="-634.7" font-family="Times,serif" font-size="14.00" fill="#000000"> &#160;&#160;&#160;symbol(): string</text>
<text text-anchor="start" x="643.1465" y="-617.9" font-family="Times,serif" font-size="14.00" fill="#000000"> &#160;&#160;&#160;decimals(): uint8</text>
<text text-anchor="start" x="643.1465" y="-601.1" font-family="Times,serif" font-size="14.00" fill="#000000"> &#160;&#160;&#160;totalSupply(): uint256</text>
<text text-anchor="start" x="643.1465" y="-584.3" font-family="Times,serif" font-size="14.00" fill="#000000"> &#160;&#160;&#160;balanceOf(account: address): uint256</text>
<text text-anchor="start" x="643.1465" y="-567.5" font-family="Times,serif" font-size="14.00" fill="#000000"> &#160;&#160;&#160;name(): string</text>
<text text-anchor="start" x="643.1465" y="-550.7" font-family="Times,serif" font-size="14.00" fill="#000000"> &#160;&#160;&#160;allowance(owner: address, spender: address): uint256</text>
<text text-anchor="start" x="643.1465" y="-533.9" font-family="Times,serif" font-size="14.00" fill="#000000"> &#160;&#160;&#160;approve(spender: address, amount: uint256): bool</text>
<text text-anchor="start" x="643.1465" y="-517.1" font-family="Times,serif" font-size="14.00" fill="#000000"> &#160;&#160;&#160;transferFrom(sender: address, recipient: address, amount: uint256): bool</text>
<text text-anchor="start" x="643.1465" y="-500.3" font-family="Times,serif" font-size="14.00" fill="#000000"> &#160;&#160;&#160;increaseAllowance(spender: address, addedValue: uint256): bool</text>
<text text-anchor="start" x="643.1465" y="-483.5" font-family="Times,serif" font-size="14.00" fill="#000000"> &#160;&#160;&#160;decreaseAllowance(spender: address, subtractedValue: uint256): bool</text>
</g>
<!-- 5&#45;&gt;4 -->
<g id="edge2" class="edge">
<title>5&#45;&gt;4</title>
<path fill="none" stroke="#000000" d="M988.23,-413.3504C983.6141,-423.8791 978.5773,-435.3679 973.2489,-447.5219"/>
<polygon fill="none" stroke="#000000" points="963.5975,-443.386 961.1683,-475.0775 982.8303,-451.8179 963.5975,-443.386"/>
</g>
<!-- 3 -->
<g id="node4" class="node">
<title>3</title>
<polygon fill="#f2f2f2" stroke="#000000" points="375.4792,-1015.1 375.4792,-1240.7 971.9136,-1240.7 971.9136,-1015.1 375.4792,-1015.1"/>
<text text-anchor="middle" x="673.6964" y="-1224.1" font-family="Times,serif" font-size="14.00" fill="#000000">&lt;&lt;Library&gt;&gt;</text>
<text text-anchor="middle" x="673.6964" y="-1207.3" font-family="Times,serif" font-size="14.00" fill="#000000">Address</text>
<polyline fill="none" stroke="#000000" points="375.4792,-1199.1 971.9136,-1199.1 "/>
<text text-anchor="middle" x="673.6964" y="-1182.5" font-family="Times,serif" font-size="14.00" fill="#000000"> </text>
<polyline fill="none" stroke="#000000" points="375.4792,-1174.3 971.9136,-1174.3 "/>
<text text-anchor="start" x="383.4792" y="-1157.7" font-family="Times,serif" font-size="14.00" fill="#000000">Private:</text>
<text text-anchor="start" x="383.4792" y="-1140.9" font-family="Times,serif" font-size="14.00" fill="#000000"> &#160;&#160;&#160;_functionCallWithValue(target: address, data: bytes, weiValue: uint256, errorMessage: string): bytes</text>
<text text-anchor="start" x="383.4792" y="-1124.1" font-family="Times,serif" font-size="14.00" fill="#000000">Internal:</text>
<text text-anchor="start" x="383.4792" y="-1107.3" font-family="Times,serif" font-size="14.00" fill="#000000"> &#160;&#160;&#160;isContract(account: address): bool</text>
<text text-anchor="start" x="383.4792" y="-1090.5" font-family="Times,serif" font-size="14.00" fill="#000000"> &#160;&#160;&#160;sendValue(recipient: address, amount: uint256)</text>
<text text-anchor="start" x="383.4792" y="-1073.7" font-family="Times,serif" font-size="14.00" fill="#000000"> &#160;&#160;&#160;functionCall(target: address, data: bytes): bytes</text>
<text text-anchor="start" x="383.4792" y="-1056.9" font-family="Times,serif" font-size="14.00" fill="#000000"> &#160;&#160;&#160;functionCall(target: address, data: bytes, errorMessage: string): bytes</text>
<text text-anchor="start" x="383.4792" y="-1040.1" font-family="Times,serif" font-size="14.00" fill="#000000"> &#160;&#160;&#160;functionCallWithValue(target: address, data: bytes, value: uint256): bytes</text>
<text text-anchor="start" x="383.4792" y="-1023.3" font-family="Times,serif" font-size="14.00" fill="#000000"> &#160;&#160;&#160;functionCallWithValue(target: address, data: bytes, value: uint256, errorMessage: string): bytes</text>
</g>
<!-- 4&#45;&gt;0 -->
<g id="edge4" class="edge">
<title>4&#45;&gt;0</title>
<path fill="none" stroke="#000000" d="M1002.7057,-969.7105C1017.6956,-994.4134 1032.1225,-1018.1884 1045.0352,-1039.4681"/>
<polygon fill="none" stroke="#000000" points="1036.2431,-1045.2192 1060.7828,-1065.4196 1054.1963,-1034.3251 1036.2431,-1045.2192"/>
</g>
<!-- 4&#45;&gt;2 -->
<g id="edge6" class="edge">
<title>4&#45;&gt;2</title>
<path fill="none" stroke="#000000" stroke-dasharray="5,2" d="M635.1003,-905.8101C599.3917,-930.0474 561.6201,-952.5601 523.6964,-970.2 458.7861,-1000.3925 432.6352,-978.3252 366.6964,-1006.2 363.2719,-1007.6477 359.8408,-1009.157 356.4086,-1010.7214"/>
<polygon fill="#000000" stroke="#000000" points="354.8887,-1007.5683 347.3241,-1014.9863 357.8636,-1013.9048 354.8887,-1007.5683"/>
</g>
<!-- 4&#45;&gt;3 -->
<g id="edge7" class="edge">
<title>4&#45;&gt;3</title>
<path fill="none" stroke="#000000" stroke-dasharray="5,2" d="M743.5433,-969.7105C738.1366,-981.9555 732.8306,-993.9726 727.7096,-1005.5708"/>
<polygon fill="#000000" stroke="#000000" points="724.4813,-1004.2171 723.6438,-1014.7788 730.8849,-1007.0446 724.4813,-1004.2171"/>
</g>
<!-- 1 -->
<g id="node6" class="node">
<title>1</title>
<polygon fill="#f2f2f2" stroke="#000000" points="1225.3965,-1006.7 1225.3965,-1249.1 1663.9963,-1249.1 1663.9963,-1006.7 1225.3965,-1006.7"/>
<text text-anchor="middle" x="1444.6964" y="-1232.5" font-family="Times,serif" font-size="14.00" fill="#000000">&lt;&lt;Interface&gt;&gt;</text>
<text text-anchor="middle" x="1444.6964" y="-1215.7" font-family="Times,serif" font-size="14.00" fill="#000000">IERC20</text>
<polyline fill="none" stroke="#000000" points="1225.3965,-1207.5 1663.9963,-1207.5 "/>
<text text-anchor="middle" x="1444.6964" y="-1190.9" font-family="Times,serif" font-size="14.00" fill="#000000"> </text>
<polyline fill="none" stroke="#000000" points="1225.3965,-1182.7 1663.9963,-1182.7 "/>
<text text-anchor="start" x="1233.3965" y="-1166.1" font-family="Times,serif" font-size="14.00" fill="#000000">External:</text>
<text text-anchor="start" x="1233.3965" y="-1149.3" font-family="Times,serif" font-size="14.00" fill="#000000"> &#160;&#160;&#160;&#160;totalSupply(): uint256</text>
<text text-anchor="start" x="1233.3965" y="-1132.5" font-family="Times,serif" font-size="14.00" fill="#000000"> &#160;&#160;&#160;&#160;balanceOf(account: address): uint256</text>
<text text-anchor="start" x="1233.3965" y="-1115.7" font-family="Times,serif" font-size="14.00" fill="#000000"> &#160;&#160;&#160;&#160;transfer(recipient: address, amount: uint256): bool</text>
<text text-anchor="start" x="1233.3965" y="-1098.9" font-family="Times,serif" font-size="14.00" fill="#000000"> &#160;&#160;&#160;&#160;allowance(owner: address, spender: address): uint256</text>
<text text-anchor="start" x="1233.3965" y="-1082.1" font-family="Times,serif" font-size="14.00" fill="#000000"> &#160;&#160;&#160;&#160;approve(spender: address, amount: uint256): bool</text>
<text text-anchor="start" x="1233.3965" y="-1065.3" font-family="Times,serif" font-size="14.00" fill="#000000"> &#160;&#160;&#160;&#160;transferFrom(sender: address, recipient: address, amount: uint256): bool</text>
<text text-anchor="start" x="1233.3965" y="-1048.5" font-family="Times,serif" font-size="14.00" fill="#000000">Public:</text>
<text text-anchor="start" x="1233.3965" y="-1031.7" font-family="Times,serif" font-size="14.00" fill="#000000"> &#160;&#160;&#160;&lt;&lt;event&gt;&gt; Transfer(from: address, to: address, value: uint256)</text>
<text text-anchor="start" x="1233.3965" y="-1014.9" font-family="Times,serif" font-size="14.00" fill="#000000"> &#160;&#160;&#160;&lt;&lt;event&gt;&gt; Approval(owner: address, spender: address, value: uint256)</text>
</g>
<!-- 4&#45;&gt;1 -->
<g id="edge5" class="edge">
<title>4&#45;&gt;1</title>
<path fill="none" stroke="#000000" stroke-dasharray="5,2" d="M1070.3698,-937.987C1085.8891,-949.5393 1101.7263,-960.4038 1117.6964,-970.2 1149.1869,-989.5165 1165.9985,-988.8895 1196.9427,-999.0504"/>
<polygon fill="none" stroke="#000000" points="1193.5741,-1009.0064 1225.3397,-1010.0991 1201.1887,-989.4356 1193.5741,-1009.0064"/>
</g>
<!-- 6 -->
<g id="node7" class="node">
<title>6</title>
<polygon fill="#f2f2f2" stroke="#000000" points="445.5683,-263.1 445.5683,-438.3 853.8245,-438.3 853.8245,-263.1 445.5683,-263.1"/>
<text text-anchor="middle" x="649.6964" y="-421.7" font-family="Times,serif" font-size="14.00" fill="#000000">&lt;&lt;Abstract&gt;&gt;</text>
<text text-anchor="middle" x="649.6964" y="-404.9" font-family="Times,serif" font-size="14.00" fill="#000000">ERC20Capped</text>
<polyline fill="none" stroke="#000000" points="445.5683,-396.7 853.8245,-396.7 "/>
<text text-anchor="start" x="453.5683" y="-380.1" font-family="Times,serif" font-size="14.00" fill="#000000">Private:</text>
<text text-anchor="start" x="453.5683" y="-363.3" font-family="Times,serif" font-size="14.00" fill="#000000"> &#160;&#160;_cap: uint256</text>
<polyline fill="none" stroke="#000000" points="445.5683,-355.1 853.8245,-355.1 "/>
<text text-anchor="start" x="453.5683" y="-338.5" font-family="Times,serif" font-size="14.00" fill="#000000">Internal:</text>
<text text-anchor="start" x="453.5683" y="-321.7" font-family="Times,serif" font-size="14.00" fill="#000000"> &#160;&#160;&#160;_beforeTokenTransfer(from: address, to: address, amount: uint256)</text>
<text text-anchor="start" x="453.5683" y="-304.9" font-family="Times,serif" font-size="14.00" fill="#000000">Public:</text>
<text text-anchor="start" x="453.5683" y="-288.1" font-family="Times,serif" font-size="14.00" fill="#000000"> &#160;&#160;&#160;constructor(cap: uint256)</text>
<text text-anchor="start" x="453.5683" y="-271.3" font-family="Times,serif" font-size="14.00" fill="#000000"> &#160;&#160;&#160;cap(): uint256</text>
</g>
<!-- 6&#45;&gt;2 -->
<g id="edge9" class="edge">
<title>6&#45;&gt;2</title>
<path fill="none" stroke="#000000" stroke-dasharray="5,2" d="M529.4571,-438.5375C517.2959,-449.9986 505.7457,-462.1725 495.6964,-474.8 364.8277,-639.2436 269.9508,-866.5536 219.702,-1005.0644"/>
<polygon fill="#000000" stroke="#000000" points="216.2617,-1004.2873 216.1614,-1014.8817 222.8465,-1006.6622 216.2617,-1004.2873"/>
</g>
<!-- 6&#45;&gt;4 -->
<g id="edge8" class="edge">
<title>6&#45;&gt;4</title>
<path fill="none" stroke="#000000" d="M697.5475,-438.3406C699.3772,-441.6918 701.2396,-445.1027 703.1308,-448.5666"/>
<polygon fill="none" stroke="#000000" points="693.9636,-453.6875 717.5559,-474.9866 712.3952,-443.6239 693.9636,-453.6875"/>
</g>
<!-- 7 -->
<g id="node8" class="node">
<title>7</title>
<polygon fill="#f2f2f2" stroke="#000000" points="1126.2594,-626.5 1126.2594,-818.5 1611.1334,-818.5 1611.1334,-626.5 1126.2594,-626.5"/>
<text text-anchor="middle" x="1368.6964" y="-801.9" font-family="Times,serif" font-size="14.00" fill="#000000">Ownable</text>
<polyline fill="none" stroke="#000000" points="1126.2594,-793.7 1611.1334,-793.7 "/>
<text text-anchor="start" x="1134.2594" y="-777.1" font-family="Times,serif" font-size="14.00" fill="#000000">Private:</text>
<text text-anchor="start" x="1134.2594" y="-760.3" font-family="Times,serif" font-size="14.00" fill="#000000"> &#160;&#160;_owner: address</text>
<polyline fill="none" stroke="#000000" points="1126.2594,-752.1 1611.1334,-752.1 "/>
<text text-anchor="start" x="1134.2594" y="-735.5" font-family="Times,serif" font-size="14.00" fill="#000000">Public:</text>
<text text-anchor="start" x="1134.2594" y="-718.7" font-family="Times,serif" font-size="14.00" fill="#000000"> &#160;&#160;&#160;&lt;&lt;event&gt;&gt; OwnershipTransferred(previousOwner: address, newOwner: address)</text>
<text text-anchor="start" x="1134.2594" y="-701.9" font-family="Times,serif" font-size="14.00" fill="#000000"> &#160;&#160;&#160;&lt;&lt;modifier&gt;&gt; onlyOwner()</text>
<text text-anchor="start" x="1134.2594" y="-685.1" font-family="Times,serif" font-size="14.00" fill="#000000"> &#160;&#160;&#160;constructor()</text>
<text text-anchor="start" x="1134.2594" y="-668.3" font-family="Times,serif" font-size="14.00" fill="#000000"> &#160;&#160;&#160;owner(): address</text>
<text text-anchor="start" x="1134.2594" y="-651.5" font-family="Times,serif" font-size="14.00" fill="#000000"> &#160;&#160;&#160;renounceOwnership()</text>
<text text-anchor="start" x="1134.2594" y="-634.7" font-family="Times,serif" font-size="14.00" fill="#000000"> &#160;&#160;&#160;transferOwnership(newOwner: address)</text>
</g>
<!-- 7&#45;&gt;0 -->
<g id="edge10" class="edge">
<title>7&#45;&gt;0</title>
<path fill="none" stroke="#000000" d="M1304.7102,-818.5741C1259.9296,-885.8113 1200.5759,-974.9299 1157.0823,-1040.2347"/>
<polygon fill="none" stroke="#000000" points="1148.2703,-1034.5236 1140.3798,-1065.3131 1165.7487,-1046.1644 1148.2703,-1034.5236"/>
</g>
<!-- 8 -->
<g id="node9" class="node">
<title>8</title>
<polygon fill="#f2f2f2" stroke="#000000" points="1177.1851,-305.1 1177.1851,-396.3 1560.2077,-396.3 1560.2077,-305.1 1177.1851,-305.1"/>
<text text-anchor="middle" x="1368.6964" y="-379.7" font-family="Times,serif" font-size="14.00" fill="#000000">TokenRecover</text>
<polyline fill="none" stroke="#000000" points="1177.1851,-371.5 1560.2077,-371.5 "/>
<text text-anchor="middle" x="1368.6964" y="-354.9" font-family="Times,serif" font-size="14.00" fill="#000000"> </text>
<polyline fill="none" stroke="#000000" points="1177.1851,-346.7 1560.2077,-346.7 "/>
<text text-anchor="start" x="1185.1851" y="-330.1" font-family="Times,serif" font-size="14.00" fill="#000000">Public:</text>
<text text-anchor="start" x="1185.1851" y="-313.3" font-family="Times,serif" font-size="14.00" fill="#000000"> &#160;&#160;&#160;recoverERC20(tokenAddress: address, tokenAmount: uint256)</text>
</g>
<!-- 8&#45;&gt;1 -->
<g id="edge12" class="edge">
<title>8&#45;&gt;1</title>
<path fill="none" stroke="#000000" stroke-dasharray="5,2" d="M1473.8791,-396.4127C1538.6011,-425.6045 1610.8475,-460.5535 1619.6964,-474.8 1735.8692,-661.8351 1709.2097,-769.0393 1619.6964,-970.2 1615.4123,-979.8275 1610.2179,-989.1145 1604.3398,-998.032"/>
<polygon fill="#000000" stroke="#000000" points="1601.3146,-996.2529 1598.5019,-1006.4676 1607.0706,-1000.2364 1601.3146,-996.2529"/>
</g>
<!-- 8&#45;&gt;7 -->
<g id="edge11" class="edge">
<title>8&#45;&gt;7</title>
<path fill="none" stroke="#000000" d="M1368.6964,-396.6629C1368.6964,-446.2243 1368.6964,-527.2829 1368.6964,-596.1504"/>
<polygon fill="none" stroke="#000000" points="1358.1965,-596.2786 1368.6964,-626.2787 1379.1965,-596.2787 1358.1965,-596.2786"/>
</g>
<!-- 9 -->
<g id="node10" class="node">
<title>9</title>
<polygon fill="#f2f2f2" stroke="#000000" points="1578.4449,-305.1 1578.4449,-396.3 1796.9479,-396.3 1796.9479,-305.1 1578.4449,-305.1"/>
<text text-anchor="middle" x="1687.6964" y="-379.7" font-family="Times,serif" font-size="14.00" fill="#000000">Receiver</text>
<polyline fill="none" stroke="#000000" points="1578.4449,-371.5 1796.9479,-371.5 "/>
<text text-anchor="middle" x="1687.6964" y="-354.9" font-family="Times,serif" font-size="14.00" fill="#000000"> </text>
<polyline fill="none" stroke="#000000" points="1578.4449,-346.7 1796.9479,-346.7 "/>
<text text-anchor="start" x="1586.4449" y="-330.1" font-family="Times,serif" font-size="14.00" fill="#000000">Public:</text>
<text text-anchor="start" x="1586.4449" y="-313.3" font-family="Times,serif" font-size="14.00" fill="#000000"> &#160;&#160;&#160;constructor(feeReceiver: address)</text>
</g>
<!-- 10 -->
<g id="node11" class="node">
<title>10</title>
<polygon fill="#f2f2f2" stroke="#000000" points="1025.1661,-.5 1025.1661,-226.1 1712.2267,-226.1 1712.2267,-.5 1025.1661,-.5"/>
<text text-anchor="middle" x="1368.6964" y="-209.5" font-family="Times,serif" font-size="14.00" fill="#000000">CommonERC20</text>
<polyline fill="none" stroke="#000000" points="1025.1661,-201.3 1712.2267,-201.3 "/>
<text text-anchor="start" x="1033.1661" y="-184.7" font-family="Times,serif" font-size="14.00" fill="#000000">Private:</text>
<text text-anchor="start" x="1033.1661" y="-167.9" font-family="Times,serif" font-size="14.00" fill="#000000"> &#160;&#160;_mintingFinished: bool</text>
<polyline fill="none" stroke="#000000" points="1025.1661,-159.7 1712.2267,-159.7 "/>
<text text-anchor="start" x="1033.1661" y="-143.1" font-family="Times,serif" font-size="14.00" fill="#000000">Internal:</text>
<text text-anchor="start" x="1033.1661" y="-126.3" font-family="Times,serif" font-size="14.00" fill="#000000"> &#160;&#160;&#160;_beforeTokenTransfer(from: address, to: address, amount: uint256)</text>
<text text-anchor="start" x="1033.1661" y="-109.5" font-family="Times,serif" font-size="14.00" fill="#000000">Public:</text>
<text text-anchor="start" x="1033.1661" y="-92.7" font-family="Times,serif" font-size="14.00" fill="#000000"> &#160;&#160;&#160;&lt;&lt;event&gt;&gt; MintFinished()</text>
<text text-anchor="start" x="1033.1661" y="-75.9" font-family="Times,serif" font-size="14.00" fill="#000000"> &#160;&#160;&#160;&lt;&lt;modifier&gt;&gt; canMint()</text>
<text text-anchor="start" x="1033.1661" y="-59.1" font-family="Times,serif" font-size="14.00" fill="#000000"> &#160;&#160;&#160;constructor(name: string, symbol: string, decimals: uint8, cap: uint256, initialBalance: uint256, feeReceiver: address)</text>
<text text-anchor="start" x="1033.1661" y="-42.3" font-family="Times,serif" font-size="14.00" fill="#000000"> &#160;&#160;&#160;mintingFinished(): bool</text>
<text text-anchor="start" x="1033.1661" y="-25.5" font-family="Times,serif" font-size="14.00" fill="#000000"> &#160;&#160;&#160;mint(to: address, value: uint256)</text>
<text text-anchor="start" x="1033.1661" y="-8.7" font-family="Times,serif" font-size="14.00" fill="#000000"> &#160;&#160;&#160;finishMinting()</text>
</g>
<!-- 10&#45;&gt;5 -->
<g id="edge14" class="edge">
<title>10&#45;&gt;5</title>
<path fill="none" stroke="#000000" d="M1200.7254,-226.264C1178.1103,-241.4732 1155.308,-256.8083 1133.8083,-271.2673"/>
<polygon fill="none" stroke="#000000" points="1127.83,-262.6341 1108.7956,-288.0888 1139.5492,-280.0599 1127.83,-262.6341"/>
</g>
<!-- 10&#45;&gt;6 -->
<g id="edge13" class="edge">
<title>10&#45;&gt;6</title>
<path fill="none" stroke="#000000" d="M1024.8555,-209.4439C978.9291,-223.5676 932.2863,-238.556 882.3758,-255.7886"/>
<polygon fill="none" stroke="#000000" points="878.7281,-245.9406 853.8729,-265.7514 885.6573,-265.7645 878.7281,-245.9406"/>
</g>
<!-- 10&#45;&gt;8 -->
<g id="edge15" class="edge">
<title>10&#45;&gt;8</title>
<path fill="none" stroke="#000000" d="M1368.6964,-226.4377C1368.6964,-242.8506 1368.6964,-259.4055 1368.6964,-274.8437"/>
<polygon fill="none" stroke="#000000" points="1358.1965,-275.0059 1368.6964,-305.006 1379.1965,-275.006 1358.1965,-275.0059"/>
</g>
<!-- 10&#45;&gt;9 -->
<g id="edge16" class="edge">
<title>10&#45;&gt;9</title>
<path fill="none" stroke="#000000" d="M1520.7289,-226.1661C1537.2596,-238.4565 1553.8333,-250.7868 1569.6964,-262.6 1580.2212,-270.4378 1591.2692,-278.6742 1602.2075,-286.8345"/>
<polygon fill="none" stroke="#000000" points="1596.1512,-295.4164 1626.4735,-304.9458 1608.712,-278.5871 1596.1512,-295.4164"/>
</g>
</g>
</svg>
