<?xml version="1.0" encoding="UTF-8" standalone="no"?>
<!DOCTYPE svg PUBLIC "-//W3C//DTD SVG 1.1//EN"
 "http://www.w3.org/Graphics/SVG/1.1/DTD/svg11.dtd">
<!-- Generated by graphviz version 2.40.1 (20161225.0304)
 -->
<!-- Title: UmlClassDiagram Pages: 1 -->
<svg width="1672pt" height="1258pt"
 viewBox="0.00 0.00 1672.00 1257.60" xmlns="http://www.w3.org/2000/svg" xmlns:xlink="http://www.w3.org/1999/xlink">
<g id="graph0" class="graph" transform="scale(1 1) rotate(0) translate(4 1253.6)">
<title>UmlClassDiagram</title>
<polygon fill="#ffffff" stroke="transparent" points="-4,4 -4,-1253.6 1667.9963,-1253.6 1667.9963,4 -4,4"/>
<!-- 0 -->
<g id="node1" class="node">
<title>0</title>
<polygon fill="#f2f2f2" stroke="#000000" points="456.2276,-1065.5 456.2276,-1190.3 674.3722,-1190.3 674.3722,-1065.5 456.2276,-1065.5"/>
<text text-anchor="middle" x="565.2999" y="-1173.7" font-family="Times,serif" font-size="14.00" fill="#000000">&lt;&lt;Abstract&gt;&gt;</text>
<text text-anchor="middle" x="565.2999" y="-1156.9" font-family="Times,serif" font-size="14.00" fill="#000000">Context</text>
<polyline fill="none" stroke="#000000" points="456.2276,-1148.7 674.3722,-1148.7 "/>
<text text-anchor="middle" x="565.2999" y="-1132.1" font-family="Times,serif" font-size="14.00" fill="#000000"> </text>
<polyline fill="none" stroke="#000000" points="456.2276,-1123.9 674.3722,-1123.9 "/>
<text text-anchor="start" x="464.2276" y="-1107.3" font-family="Times,serif" font-size="14.00" fill="#000000">Internal:</text>
<text text-anchor="start" x="464.2276" y="-1090.5" font-family="Times,serif" font-size="14.00" fill="#000000"> &#160;&#160;&#160;_msgSender(): (payable: address)</text>
<text text-anchor="start" x="464.2276" y="-1073.7" font-family="Times,serif" font-size="14.00" fill="#000000"> &#160;&#160;&#160;_msgData(): bytes</text>
</g>
<!-- 1 -->
<g id="node2" class="node">
<title>1</title>
<polygon fill="#f2f2f2" stroke="#000000" points="0,-1006.7 0,-1249.1 438.5998,-1249.1 438.5998,-1006.7 0,-1006.7"/>
<text text-anchor="middle" x="219.2999" y="-1232.5" font-family="Times,serif" font-size="14.00" fill="#000000">&lt;&lt;Interface&gt;&gt;</text>
<text text-anchor="middle" x="219.2999" y="-1215.7" font-family="Times,serif" font-size="14.00" fill="#000000">IERC20</text>
<polyline fill="none" stroke="#000000" points="0,-1207.5 438.5998,-1207.5 "/>
<text text-anchor="middle" x="219.2999" y="-1190.9" font-family="Times,serif" font-size="14.00" fill="#000000"> </text>
<polyline fill="none" stroke="#000000" points="0,-1182.7 438.5998,-1182.7 "/>
<text text-anchor="start" x="8" y="-1166.1" font-family="Times,serif" font-size="14.00" fill="#000000">External:</text>
<text text-anchor="start" x="8" y="-1149.3" font-family="Times,serif" font-size="14.00" fill="#000000"> &#160;&#160;&#160;&#160;totalSupply(): uint256</text>
<text text-anchor="start" x="8" y="-1132.5" font-family="Times,serif" font-size="14.00" fill="#000000"> &#160;&#160;&#160;&#160;balanceOf(account: address): uint256</text>
<text text-anchor="start" x="8" y="-1115.7" font-family="Times,serif" font-size="14.00" fill="#000000"> &#160;&#160;&#160;&#160;transfer(recipient: address, amount: uint256): bool</text>
<text text-anchor="start" x="8" y="-1098.9" font-family="Times,serif" font-size="14.00" fill="#000000"> &#160;&#160;&#160;&#160;allowance(owner: address, spender: address): uint256</text>
<text text-anchor="start" x="8" y="-1082.1" font-family="Times,serif" font-size="14.00" fill="#000000"> &#160;&#160;&#160;&#160;approve(spender: address, amount: uint256): bool</text>
<text text-anchor="start" x="8" y="-1065.3" font-family="Times,serif" font-size="14.00" fill="#000000"> &#160;&#160;&#160;&#160;transferFrom(sender: address, recipient: address, amount: uint256): bool</text>
<text text-anchor="start" x="8" y="-1048.5" font-family="Times,serif" font-size="14.00" fill="#000000">Public:</text>
<text text-anchor="start" x="8" y="-1031.7" font-family="Times,serif" font-size="14.00" fill="#000000"> &#160;&#160;&#160;&lt;&lt;event&gt;&gt; Transfer(from: address, to: address, value: uint256)</text>
<text text-anchor="start" x="8" y="-1014.9" font-family="Times,serif" font-size="14.00" fill="#000000"> &#160;&#160;&#160;&lt;&lt;event&gt;&gt; Approval(owner: address, spender: address, value: uint256)</text>
</g>
<!-- 2 -->
<g id="node3" class="node">
<title>2</title>
<polygon fill="#f2f2f2" stroke="#000000" points="1306.6035,-1015.1 1306.6035,-1240.7 1663.9963,-1240.7 1663.9963,-1015.1 1306.6035,-1015.1"/>
<text text-anchor="middle" x="1485.2999" y="-1224.1" font-family="Times,serif" font-size="14.00" fill="#000000">&lt;&lt;Library&gt;&gt;</text>
<text text-anchor="middle" x="1485.2999" y="-1207.3" font-family="Times,serif" font-size="14.00" fill="#000000">SafeMath</text>
<polyline fill="none" stroke="#000000" points="1306.6035,-1199.1 1663.9963,-1199.1 "/>
<text text-anchor="middle" x="1485.2999" y="-1182.5" font-family="Times,serif" font-size="14.00" fill="#000000"> </text>
<polyline fill="none" stroke="#000000" points="1306.6035,-1174.3 1663.9963,-1174.3 "/>
<text text-anchor="start" x="1314.6035" y="-1157.7" font-family="Times,serif" font-size="14.00" fill="#000000">Internal:</text>
<text text-anchor="start" x="1314.6035" y="-1140.9" font-family="Times,serif" font-size="14.00" fill="#000000"> &#160;&#160;&#160;add(a: uint256, b: uint256): uint256</text>
<text text-anchor="start" x="1314.6035" y="-1124.1" font-family="Times,serif" font-size="14.00" fill="#000000"> &#160;&#160;&#160;sub(a: uint256, b: uint256): uint256</text>
<text text-anchor="start" x="1314.6035" y="-1107.3" font-family="Times,serif" font-size="14.00" fill="#000000"> &#160;&#160;&#160;sub(a: uint256, b: uint256, errorMessage: string): uint256</text>
<text text-anchor="start" x="1314.6035" y="-1090.5" font-family="Times,serif" font-size="14.00" fill="#000000"> &#160;&#160;&#160;mul(a: uint256, b: uint256): uint256</text>
<text text-anchor="start" x="1314.6035" y="-1073.7" font-family="Times,serif" font-size="14.00" fill="#000000"> &#160;&#160;&#160;div(a: uint256, b: uint256): uint256</text>
<text text-anchor="start" x="1314.6035" y="-1056.9" font-family="Times,serif" font-size="14.00" fill="#000000"> &#160;&#160;&#160;div(a: uint256, b: uint256, errorMessage: string): uint256</text>
<text text-anchor="start" x="1314.6035" y="-1040.1" font-family="Times,serif" font-size="14.00" fill="#000000"> &#160;&#160;&#160;mod(a: uint256, b: uint256): uint256</text>
<text text-anchor="start" x="1314.6035" y="-1023.3" font-family="Times,serif" font-size="14.00" fill="#000000"> &#160;&#160;&#160;mod(a: uint256, b: uint256, errorMessage: string): uint256</text>
</g>
<!-- 3 -->
<g id="node4" class="node">
<title>3</title>
<polygon fill="#f2f2f2" stroke="#000000" points="692.0827,-1015.1 692.0827,-1240.7 1288.5171,-1240.7 1288.5171,-1015.1 692.0827,-1015.1"/>
<text text-anchor="middle" x="990.2999" y="-1224.1" font-family="Times,serif" font-size="14.00" fill="#000000">&lt;&lt;Library&gt;&gt;</text>
<text text-anchor="middle" x="990.2999" y="-1207.3" font-family="Times,serif" font-size="14.00" fill="#000000">Address</text>
<polyline fill="none" stroke="#000000" points="692.0827,-1199.1 1288.5171,-1199.1 "/>
<text text-anchor="middle" x="990.2999" y="-1182.5" font-family="Times,serif" font-size="14.00" fill="#000000"> </text>
<polyline fill="none" stroke="#000000" points="692.0827,-1174.3 1288.5171,-1174.3 "/>
<text text-anchor="start" x="700.0827" y="-1157.7" font-family="Times,serif" font-size="14.00" fill="#000000">Private:</text>
<text text-anchor="start" x="700.0827" y="-1140.9" font-family="Times,serif" font-size="14.00" fill="#000000"> &#160;&#160;&#160;_functionCallWithValue(target: address, data: bytes, weiValue: uint256, errorMessage: string): bytes</text>
<text text-anchor="start" x="700.0827" y="-1124.1" font-family="Times,serif" font-size="14.00" fill="#000000">Internal:</text>
<text text-anchor="start" x="700.0827" y="-1107.3" font-family="Times,serif" font-size="14.00" fill="#000000"> &#160;&#160;&#160;isContract(account: address): bool</text>
<text text-anchor="start" x="700.0827" y="-1090.5" font-family="Times,serif" font-size="14.00" fill="#000000"> &#160;&#160;&#160;sendValue(recipient: address, amount: uint256)</text>
<text text-anchor="start" x="700.0827" y="-1073.7" font-family="Times,serif" font-size="14.00" fill="#000000"> &#160;&#160;&#160;functionCall(target: address, data: bytes): bytes</text>
<text text-anchor="start" x="700.0827" y="-1056.9" font-family="Times,serif" font-size="14.00" fill="#000000"> &#160;&#160;&#160;functionCall(target: address, data: bytes, errorMessage: string): bytes</text>
<text text-anchor="start" x="700.0827" y="-1040.1" font-family="Times,serif" font-size="14.00" fill="#000000"> &#160;&#160;&#160;functionCallWithValue(target: address, data: bytes, value: uint256): bytes</text>
<text text-anchor="start" x="700.0827" y="-1023.3" font-family="Times,serif" font-size="14.00" fill="#000000"> &#160;&#160;&#160;functionCallWithValue(target: address, data: bytes, value: uint256, errorMessage: string): bytes</text>
</g>
<!-- 4 -->
<g id="node5" class="node">
<title>4</title>
<polygon fill="#f2f2f2" stroke="#000000" points="593.75,-475.3 593.75,-969.7 1028.8498,-969.7 1028.8498,-475.3 593.75,-475.3"/>
<text text-anchor="middle" x="811.2999" y="-953.1" font-family="Times,serif" font-size="14.00" fill="#000000">ERC20</text>
<polyline fill="none" stroke="#000000" points="593.75,-944.9 1028.8498,-944.9 "/>
<text text-anchor="start" x="601.75" y="-928.3" font-family="Times,serif" font-size="14.00" fill="#000000">Private:</text>
<text text-anchor="start" x="601.75" y="-911.5" font-family="Times,serif" font-size="14.00" fill="#000000"> &#160;&#160;_balances: mapping(address=&gt;uint256)</text>
<text text-anchor="start" x="601.75" y="-894.7" font-family="Times,serif" font-size="14.00" fill="#000000"> &#160;&#160;_allowances: mapping(address=&gt;mapping(address=&gt;uint256))</text>
<text text-anchor="start" x="601.75" y="-877.9" font-family="Times,serif" font-size="14.00" fill="#000000"> &#160;&#160;_totalSupply: uint256</text>
<text text-anchor="start" x="601.75" y="-861.1" font-family="Times,serif" font-size="14.00" fill="#000000"> &#160;&#160;_name: string</text>
<text text-anchor="start" x="601.75" y="-844.3" font-family="Times,serif" font-size="14.00" fill="#000000"> &#160;&#160;_symbol: string</text>
<text text-anchor="start" x="601.75" y="-827.5" font-family="Times,serif" font-size="14.00" fill="#000000"> &#160;&#160;_decimals: uint8</text>
<polyline fill="none" stroke="#000000" points="593.75,-819.3 1028.8498,-819.3 "/>
<text text-anchor="start" x="601.75" y="-802.7" font-family="Times,serif" font-size="14.00" fill="#000000">Internal:</text>
<text text-anchor="start" x="601.75" y="-785.9" font-family="Times,serif" font-size="14.00" fill="#000000"> &#160;&#160;&#160;_transfer(sender: address, recipient: address, amount: uint256)</text>
<text text-anchor="start" x="601.75" y="-769.1" font-family="Times,serif" font-size="14.00" fill="#000000"> &#160;&#160;&#160;_mint(account: address, amount: uint256)</text>
<text text-anchor="start" x="601.75" y="-752.3" font-family="Times,serif" font-size="14.00" fill="#000000"> &#160;&#160;&#160;_burn(account: address, amount: uint256)</text>
<text text-anchor="start" x="601.75" y="-735.5" font-family="Times,serif" font-size="14.00" fill="#000000"> &#160;&#160;&#160;_approve(owner: address, spender: address, amount: uint256)</text>
<text text-anchor="start" x="601.75" y="-718.7" font-family="Times,serif" font-size="14.00" fill="#000000"> &#160;&#160;&#160;_setupDecimals(decimals_: uint8)</text>
<text text-anchor="start" x="601.75" y="-701.9" font-family="Times,serif" font-size="14.00" fill="#000000"> &#160;&#160;&#160;_beforeTokenTransfer(from: address, to: address, amount: uint256)</text>
<text text-anchor="start" x="601.75" y="-685.1" font-family="Times,serif" font-size="14.00" fill="#000000">Public:</text>
<text text-anchor="start" x="601.75" y="-668.3" font-family="Times,serif" font-size="14.00" fill="#000000"> &#160;&#160;&#160;transfer(recipient: address, amount: uint256): bool</text>
<text text-anchor="start" x="601.75" y="-651.5" font-family="Times,serif" font-size="14.00" fill="#000000"> &#160;&#160;&#160;constructor(name: string, symbol: string)</text>
<text text-anchor="start" x="601.75" y="-634.7" font-family="Times,serif" font-size="14.00" fill="#000000"> &#160;&#160;&#160;symbol(): string</text>
<text text-anchor="start" x="601.75" y="-617.9" font-family="Times,serif" font-size="14.00" fill="#000000"> &#160;&#160;&#160;decimals(): uint8</text>
<text text-anchor="start" x="601.75" y="-601.1" font-family="Times,serif" font-size="14.00" fill="#000000"> &#160;&#160;&#160;totalSupply(): uint256</text>
<text text-anchor="start" x="601.75" y="-584.3" font-family="Times,serif" font-size="14.00" fill="#000000"> &#160;&#160;&#160;balanceOf(account: address): uint256</text>
<text text-anchor="start" x="601.75" y="-567.5" font-family="Times,serif" font-size="14.00" fill="#000000"> &#160;&#160;&#160;name(): string</text>
<text text-anchor="start" x="601.75" y="-550.7" font-family="Times,serif" font-size="14.00" fill="#000000"> &#160;&#160;&#160;allowance(owner: address, spender: address): uint256</text>
<text text-anchor="start" x="601.75" y="-533.9" font-family="Times,serif" font-size="14.00" fill="#000000"> &#160;&#160;&#160;approve(spender: address, amount: uint256): bool</text>
<text text-anchor="start" x="601.75" y="-517.1" font-family="Times,serif" font-size="14.00" fill="#000000"> &#160;&#160;&#160;transferFrom(sender: address, recipient: address, amount: uint256): bool</text>
<text text-anchor="start" x="601.75" y="-500.3" font-family="Times,serif" font-size="14.00" fill="#000000"> &#160;&#160;&#160;increaseAllowance(spender: address, addedValue: uint256): bool</text>
<text text-anchor="start" x="601.75" y="-483.5" font-family="Times,serif" font-size="14.00" fill="#000000"> &#160;&#160;&#160;decreaseAllowance(spender: address, subtractedValue: uint256): bool</text>
</g>
<!-- 4&#45;&gt;0 -->
<g id="edge1" class="edge">
<title>4&#45;&gt;0</title>
<path fill="none" stroke="#000000" d="M661.2906,-969.7105C646.3007,-994.4134 631.8738,-1018.1884 618.9611,-1039.4681"/>
<polygon fill="none" stroke="#000000" points="609.8,-1034.3251 603.2135,-1065.4196 627.7532,-1045.2192 609.8,-1034.3251"/>
</g>
<!-- 4&#45;&gt;1 -->
<g id="edge2" class="edge">
<title>4&#45;&gt;1</title>
<path fill="none" stroke="#000000" stroke-dasharray="5,2" d="M593.6265,-937.987C578.1072,-949.5393 562.27,-960.4038 546.2999,-970.2 514.8094,-989.5165 497.9978,-988.8895 467.0536,-999.0504"/>
<polygon fill="none" stroke="#000000" points="462.8076,-989.4356 438.6566,-1010.0991 470.4222,-1009.0064 462.8076,-989.4356"/>
</g>
<!-- 4&#45;&gt;2 -->
<g id="edge3" class="edge">
<title>4&#45;&gt;2</title>
<path fill="none" stroke="#000000" stroke-dasharray="5,2" d="M1029.0999,-846.7756C1113.3906,-895.6175 1210.3383,-952.7107 1297.2999,-1006.2 1299.2171,-1007.3792 1301.1437,-1008.5674 1303.0783,-1009.7634"/>
<polygon fill="#000000" stroke="#000000" points="1301.2653,-1012.7574 1311.608,-1015.0551 1304.9555,-1006.8091 1301.2653,-1012.7574"/>
</g>
<!-- 4&#45;&gt;3 -->
<g id="edge4" class="edge">
<title>4&#45;&gt;3</title>
<path fill="none" stroke="#000000" stroke-dasharray="5,2" d="M920.453,-969.7105C925.8597,-981.9555 931.1657,-993.9726 936.2867,-1005.5708"/>
<polygon fill="#000000" stroke="#000000" points="933.1114,-1007.0446 940.3525,-1014.7788 939.515,-1004.2171 933.1114,-1007.0446"/>
</g>
<!-- 5 -->
<g id="node6" class="node">
<title>5</title>
<polygon fill="#f2f2f2" stroke="#000000" points="504.6063,-288.3 504.6063,-413.1 791.9935,-413.1 791.9935,-288.3 504.6063,-288.3"/>
<text text-anchor="middle" x="648.2999" y="-396.5" font-family="Times,serif" font-size="14.00" fill="#000000">&lt;&lt;Abstract&gt;&gt;</text>
<text text-anchor="middle" x="648.2999" y="-379.7" font-family="Times,serif" font-size="14.00" fill="#000000">ERC20Burnable</text>
<polyline fill="none" stroke="#000000" points="504.6063,-371.5 791.9935,-371.5 "/>
<text text-anchor="middle" x="648.2999" y="-354.9" font-family="Times,serif" font-size="14.00" fill="#000000"> </text>
<polyline fill="none" stroke="#000000" points="504.6063,-346.7 791.9935,-346.7 "/>
<text text-anchor="start" x="512.6063" y="-330.1" font-family="Times,serif" font-size="14.00" fill="#000000">Public:</text>
<text text-anchor="start" x="512.6063" y="-313.3" font-family="Times,serif" font-size="14.00" fill="#000000"> &#160;&#160;&#160;burn(amount: uint256)</text>
<text text-anchor="start" x="512.6063" y="-296.5" font-family="Times,serif" font-size="14.00" fill="#000000"> &#160;&#160;&#160;burnFrom(account: address, amount: uint256)</text>
</g>
<!-- 5&#45;&gt;0 -->
<g id="edge5" class="edge">
<title>5&#45;&gt;0</title>
<path fill="none" stroke="#000000" d="M609.1792,-413.2419C599.176,-432.3054 589.7225,-453.7924 584.2999,-474.8 557.6882,-577.8961 559.8891,-881.0028 562.9554,-1035.3317"/>
<polygon fill="none" stroke="#000000" points="552.4601,-1035.6708 563.6025,-1065.4382 573.4553,-1035.2195 552.4601,-1035.6708"/>
</g>
<!-- 5&#45;&gt;2 -->
<g id="edge7" class="edge">
<title>5&#45;&gt;2</title>
<path fill="none" stroke="#000000" stroke-dasharray="5,2" d="M744.4806,-413.2108C762.7867,-423.0264 782.2052,-432.1185 801.2999,-438.8 901.8628,-473.9883 953.1693,-410.7384 1038.2999,-474.8 1231.9681,-620.5372 1112.2006,-783.1169 1266.2999,-970.2 1277.1941,-983.426 1289.4451,-996.0916 1302.4431,-1008.0869"/>
<polygon fill="#000000" stroke="#000000" points="1300.4102,-1010.967 1310.1778,-1015.0713 1305.1016,-1005.7717 1300.4102,-1010.967"/>
</g>
<!-- 5&#45;&gt;4 -->
<g id="edge6" class="edge">
<title>5&#45;&gt;4</title>
<path fill="none" stroke="#000000" d="M675.7663,-413.3504C680.3822,-423.8791 685.419,-435.3679 690.7474,-447.5219"/>
<polygon fill="none" stroke="#000000" points="681.166,-451.8179 702.828,-475.0775 700.3988,-443.386 681.166,-451.8179"/>
</g>
<!-- 6 -->
<g id="node7" class="node">
<title>6</title>
<polygon fill="#f2f2f2" stroke="#000000" points="810.1718,-263.1 810.1718,-438.3 1218.428,-438.3 1218.428,-263.1 810.1718,-263.1"/>
<text text-anchor="middle" x="1014.2999" y="-421.7" font-family="Times,serif" font-size="14.00" fill="#000000">&lt;&lt;Abstract&gt;&gt;</text>
<text text-anchor="middle" x="1014.2999" y="-404.9" font-family="Times,serif" font-size="14.00" fill="#000000">ERC20Capped</text>
<polyline fill="none" stroke="#000000" points="810.1718,-396.7 1218.428,-396.7 "/>
<text text-anchor="start" x="818.1718" y="-380.1" font-family="Times,serif" font-size="14.00" fill="#000000">Private:</text>
<text text-anchor="start" x="818.1718" y="-363.3" font-family="Times,serif" font-size="14.00" fill="#000000"> &#160;&#160;_cap: uint256</text>
<polyline fill="none" stroke="#000000" points="810.1718,-355.1 1218.428,-355.1 "/>
<text text-anchor="start" x="818.1718" y="-338.5" font-family="Times,serif" font-size="14.00" fill="#000000">Internal:</text>
<text text-anchor="start" x="818.1718" y="-321.7" font-family="Times,serif" font-size="14.00" fill="#000000"> &#160;&#160;&#160;_beforeTokenTransfer(from: address, to: address, amount: uint256)</text>
<text text-anchor="start" x="818.1718" y="-304.9" font-family="Times,serif" font-size="14.00" fill="#000000">Public:</text>
<text text-anchor="start" x="818.1718" y="-288.1" font-family="Times,serif" font-size="14.00" fill="#000000"> &#160;&#160;&#160;constructor(cap: uint256)</text>
<text text-anchor="start" x="818.1718" y="-271.3" font-family="Times,serif" font-size="14.00" fill="#000000"> &#160;&#160;&#160;cap(): uint256</text>
</g>
<!-- 6&#45;&gt;2 -->
<g id="edge9" class="edge">
<title>6&#45;&gt;2</title>
<path fill="none" stroke="#000000" stroke-dasharray="5,2" d="M1218.6955,-432.6837C1236.2234,-445.0267 1252.4983,-459.0121 1266.2999,-474.8 1399.0835,-626.6936 1451.9656,-862.0142 1472.5911,-1004.8446"/>
<polygon fill="#000000" stroke="#000000" points="1469.1565,-1005.5541 1474.0211,-1014.9661 1476.0877,-1004.5748 1469.1565,-1005.5541"/>
</g>
<!-- 6&#45;&gt;4 -->
<g id="edge8" class="edge">
<title>6&#45;&gt;4</title>
<path fill="none" stroke="#000000" d="M966.4488,-438.3406C964.6191,-441.6918 962.7567,-445.1027 960.8655,-448.5666"/>
<polygon fill="none" stroke="#000000" points="951.6011,-443.6239 946.4404,-474.9866 970.0327,-453.6875 951.6011,-443.6239"/>
</g>
<!-- 7 -->
<g id="node8" class="node">
<title>7</title>
<polygon fill="#f2f2f2" stroke="#000000" points="52.8629,-626.5 52.8629,-818.5 537.7369,-818.5 537.7369,-626.5 52.8629,-626.5"/>
<text text-anchor="middle" x="295.2999" y="-801.9" font-family="Times,serif" font-size="14.00" fill="#000000">Ownable</text>
<polyline fill="none" stroke="#000000" points="52.8629,-793.7 537.7369,-793.7 "/>
<text text-anchor="start" x="60.8629" y="-777.1" font-family="Times,serif" font-size="14.00" fill="#000000">Private:</text>
<text text-anchor="start" x="60.8629" y="-760.3" font-family="Times,serif" font-size="14.00" fill="#000000"> &#160;&#160;_owner: address</text>
<polyline fill="none" stroke="#000000" points="52.8629,-752.1 537.7369,-752.1 "/>
<text text-anchor="start" x="60.8629" y="-735.5" font-family="Times,serif" font-size="14.00" fill="#000000">Public:</text>
<text text-anchor="start" x="60.8629" y="-718.7" font-family="Times,serif" font-size="14.00" fill="#000000"> &#160;&#160;&#160;&lt;&lt;event&gt;&gt; OwnershipTransferred(previousOwner: address, newOwner: address)</text>
<text text-anchor="start" x="60.8629" y="-701.9" font-family="Times,serif" font-size="14.00" fill="#000000"> &#160;&#160;&#160;&lt;&lt;modifier&gt;&gt; onlyOwner()</text>
<text text-anchor="start" x="60.8629" y="-685.1" font-family="Times,serif" font-size="14.00" fill="#000000"> &#160;&#160;&#160;constructor()</text>
<text text-anchor="start" x="60.8629" y="-668.3" font-family="Times,serif" font-size="14.00" fill="#000000"> &#160;&#160;&#160;owner(): address</text>
<text text-anchor="start" x="60.8629" y="-651.5" font-family="Times,serif" font-size="14.00" fill="#000000"> &#160;&#160;&#160;renounceOwnership()</text>
<text text-anchor="start" x="60.8629" y="-634.7" font-family="Times,serif" font-size="14.00" fill="#000000"> &#160;&#160;&#160;transferOwnership(newOwner: address)</text>
</g>
<!-- 7&#45;&gt;0 -->
<g id="edge10" class="edge">
<title>7&#45;&gt;0</title>
<path fill="none" stroke="#000000" d="M359.2861,-818.5741C404.0667,-885.8113 463.4204,-974.9299 506.914,-1040.2347"/>
<polygon fill="none" stroke="#000000" points="498.2476,-1046.1644 523.6165,-1065.3131 515.726,-1034.5236 498.2476,-1046.1644"/>
</g>
<!-- 8 -->
<g id="node9" class="node">
<title>8</title>
<polygon fill="#f2f2f2" stroke="#000000" points="103.7886,-305.1 103.7886,-396.3 486.8112,-396.3 486.8112,-305.1 103.7886,-305.1"/>
<text text-anchor="middle" x="295.2999" y="-379.7" font-family="Times,serif" font-size="14.00" fill="#000000">TokenRecover</text>
<polyline fill="none" stroke="#000000" points="103.7886,-371.5 486.8112,-371.5 "/>
<text text-anchor="middle" x="295.2999" y="-354.9" font-family="Times,serif" font-size="14.00" fill="#000000"> </text>
<polyline fill="none" stroke="#000000" points="103.7886,-346.7 486.8112,-346.7 "/>
<text text-anchor="start" x="111.7886" y="-330.1" font-family="Times,serif" font-size="14.00" fill="#000000">Public:</text>
<text text-anchor="start" x="111.7886" y="-313.3" font-family="Times,serif" font-size="14.00" fill="#000000"> &#160;&#160;&#160;recoverERC20(tokenAddress: address, tokenAmount: uint256)</text>
</g>
<!-- 8&#45;&gt;1 -->
<g id="edge12" class="edge">
<title>8&#45;&gt;1</title>
<path fill="none" stroke="#000000" stroke-dasharray="5,2" d="M137.1417,-396.3459C100.4805,-414.6773 65.9092,-440.0095 44.2999,-474.8 -13.7865,-568.3176 -.4568,-869.6197 44.2999,-970.2 48.584,-979.8275 53.7784,-989.1145 59.6565,-998.032"/>
<polygon fill="#000000" stroke="#000000" points="56.9257,-1000.2364 65.4944,-1006.4676 62.6817,-996.2529 56.9257,-1000.2364"/>
</g>
<!-- 8&#45;&gt;7 -->
<g id="edge11" class="edge">
<title>8&#45;&gt;7</title>
<path fill="none" stroke="#000000" d="M295.2999,-396.6629C295.2999,-446.2243 295.2999,-527.2829 295.2999,-596.1504"/>
<polygon fill="none" stroke="#000000" points="284.8,-596.2786 295.2999,-626.2787 305.8,-596.2787 284.8,-596.2786"/>
</g>
<!-- 9 -->
<g id="node10" class="node">
<title>9</title>
<polygon fill="#f2f2f2" stroke="#000000" points="366.3724,-.5 366.3724,-226.1 930.2274,-226.1 930.2274,-.5 366.3724,-.5"/>
<text text-anchor="middle" x="648.2999" y="-209.5" font-family="Times,serif" font-size="14.00" fill="#000000">CommonERC20</text>
<polyline fill="none" stroke="#000000" points="366.3724,-201.3 930.2274,-201.3 "/>
<text text-anchor="start" x="374.3724" y="-184.7" font-family="Times,serif" font-size="14.00" fill="#000000">Private:</text>
<text text-anchor="start" x="374.3724" y="-167.9" font-family="Times,serif" font-size="14.00" fill="#000000"> &#160;&#160;_mintingFinished: bool</text>
<polyline fill="none" stroke="#000000" points="366.3724,-159.7 930.2274,-159.7 "/>
<text text-anchor="start" x="374.3724" y="-143.1" font-family="Times,serif" font-size="14.00" fill="#000000">Internal:</text>
<text text-anchor="start" x="374.3724" y="-126.3" font-family="Times,serif" font-size="14.00" fill="#000000"> &#160;&#160;&#160;_beforeTokenTransfer(from: address, to: address, amount: uint256)</text>
<text text-anchor="start" x="374.3724" y="-109.5" font-family="Times,serif" font-size="14.00" fill="#000000">Public:</text>
<text text-anchor="start" x="374.3724" y="-92.7" font-family="Times,serif" font-size="14.00" fill="#000000"> &#160;&#160;&#160;&lt;&lt;event&gt;&gt; MintFinished()</text>
<text text-anchor="start" x="374.3724" y="-75.9" font-family="Times,serif" font-size="14.00" fill="#000000"> &#160;&#160;&#160;&lt;&lt;modifier&gt;&gt; canMint()</text>
<text text-anchor="start" x="374.3724" y="-59.1" font-family="Times,serif" font-size="14.00" fill="#000000"> &#160;&#160;&#160;constructor(name: string, symbol: string, decimals: uint8, cap: uint256, initialBalance: uint256)</text>
<text text-anchor="start" x="374.3724" y="-42.3" font-family="Times,serif" font-size="14.00" fill="#000000"> &#160;&#160;&#160;mintingFinished(): bool</text>
<text text-anchor="start" x="374.3724" y="-25.5" font-family="Times,serif" font-size="14.00" fill="#000000"> &#160;&#160;&#160;mint(to: address, value: uint256)</text>
<text text-anchor="start" x="374.3724" y="-8.7" font-family="Times,serif" font-size="14.00" fill="#000000"> &#160;&#160;&#160;finishMinting()</text>
</g>
<!-- 9&#45;&gt;5 -->
<g id="edge14" class="edge">
<title>9&#45;&gt;5</title>
<path fill="none" stroke="#000000" d="M648.2999,-226.4377C648.2999,-237.0665 648.2999,-247.7548 648.2999,-258.1608"/>
<polygon fill="none" stroke="#000000" points="637.8,-258.1901 648.2999,-288.1901 658.8,-258.1902 637.8,-258.1901"/>
</g>
<!-- 9&#45;&gt;6 -->
<g id="edge13" class="edge">
<title>9&#45;&gt;6</title>
<path fill="none" stroke="#000000" d="M822.4568,-226.264C832.8872,-233.0296 843.3561,-239.82 853.7274,-246.5472"/>
<polygon fill="none" stroke="#000000" points="848.3462,-255.5722 879.2291,-263.0885 859.774,-237.9539 848.3462,-255.5722"/>
</g>
<!-- 9&#45;&gt;8 -->
<g id="edge15" class="edge">
<title>9&#45;&gt;8</title>
<path fill="none" stroke="#000000" d="M480.3289,-226.264C448.7848,-247.4782 416.8765,-268.9372 388.6469,-287.9222"/>
<polygon fill="none" stroke="#000000" points="382.3926,-279.4746 363.3582,-304.9294 394.1119,-296.9005 382.3926,-279.4746"/>
</g>
</g>
</svg>
