<?xml version="1.0" encoding="UTF-8" standalone="no"?>
<!DOCTYPE svg PUBLIC "-//W3C//DTD SVG 1.1//EN"
 "http://www.w3.org/Graphics/SVG/1.1/DTD/svg11.dtd">
<!-- Generated by graphviz version 2.40.1 (20161225.0304)
 -->
<!-- Title: UmlClassDiagram Pages: 1 -->
<svg width="1864pt" height="1274pt"
 viewBox="0.00 0.00 1864.13 1274.40" xmlns="http://www.w3.org/2000/svg" xmlns:xlink="http://www.w3.org/1999/xlink">
<g id="graph0" class="graph" transform="scale(1 1) rotate(0) translate(4 1270.4)">
<title>UmlClassDiagram</title>
<polygon fill="#ffffff" stroke="transparent" points="-4,4 -4,-1270.4 1860.1334,-1270.4 1860.1334,4 -4,4"/>
<!-- 0 -->
<g id="node1" class="node">
<title>0</title>
<polygon fill="#f2f2f2" stroke="#000000" points="191.3647,-1082.3 191.3647,-1207.1 409.5093,-1207.1 409.5093,-1082.3 191.3647,-1082.3"/>
<text text-anchor="middle" x="300.437" y="-1190.5" font-family="Times,serif" font-size="14.00" fill="#000000">&lt;&lt;Abstract&gt;&gt;</text>
<text text-anchor="middle" x="300.437" y="-1173.7" font-family="Times,serif" font-size="14.00" fill="#000000">Context</text>
<polyline fill="none" stroke="#000000" points="191.3647,-1165.5 409.5093,-1165.5 "/>
<text text-anchor="middle" x="300.437" y="-1148.9" font-family="Times,serif" font-size="14.00" fill="#000000"> </text>
<polyline fill="none" stroke="#000000" points="191.3647,-1140.7 409.5093,-1140.7 "/>
<text text-anchor="start" x="199.3647" y="-1124.1" font-family="Times,serif" font-size="14.00" fill="#000000">Internal:</text>
<text text-anchor="start" x="199.3647" y="-1107.3" font-family="Times,serif" font-size="14.00" fill="#000000"> &#160;&#160;&#160;_msgSender(): (payable: address)</text>
<text text-anchor="start" x="199.3647" y="-1090.5" font-family="Times,serif" font-size="14.00" fill="#000000"> &#160;&#160;&#160;_msgData(): bytes</text>
</g>
<!-- 1 -->
<g id="node2" class="node">
<title>1</title>
<polygon fill="#f2f2f2" stroke="#000000" points="0,-263.1 0,-455.1 484.874,-455.1 484.874,-263.1 0,-263.1"/>
<text text-anchor="middle" x="242.437" y="-438.5" font-family="Times,serif" font-size="14.00" fill="#000000">Ownable</text>
<polyline fill="none" stroke="#000000" points="0,-430.3 484.874,-430.3 "/>
<text text-anchor="start" x="8" y="-413.7" font-family="Times,serif" font-size="14.00" fill="#000000">Private:</text>
<text text-anchor="start" x="8" y="-396.9" font-family="Times,serif" font-size="14.00" fill="#000000"> &#160;&#160;_owner: address</text>
<polyline fill="none" stroke="#000000" points="0,-388.7 484.874,-388.7 "/>
<text text-anchor="start" x="8" y="-372.1" font-family="Times,serif" font-size="14.00" fill="#000000">Public:</text>
<text text-anchor="start" x="8" y="-355.3" font-family="Times,serif" font-size="14.00" fill="#000000"> &#160;&#160;&#160;&lt;&lt;event&gt;&gt; OwnershipTransferred(previousOwner: address, newOwner: address)</text>
<text text-anchor="start" x="8" y="-338.5" font-family="Times,serif" font-size="14.00" fill="#000000"> &#160;&#160;&#160;&lt;&lt;modifier&gt;&gt; onlyOwner()</text>
<text text-anchor="start" x="8" y="-321.7" font-family="Times,serif" font-size="14.00" fill="#000000"> &#160;&#160;&#160;constructor()</text>
<text text-anchor="start" x="8" y="-304.9" font-family="Times,serif" font-size="14.00" fill="#000000"> &#160;&#160;&#160;owner(): address</text>
<text text-anchor="start" x="8" y="-288.1" font-family="Times,serif" font-size="14.00" fill="#000000"> &#160;&#160;&#160;renounceOwnership()</text>
<text text-anchor="start" x="8" y="-271.3" font-family="Times,serif" font-size="14.00" fill="#000000"> &#160;&#160;&#160;transferOwnership(newOwner: address)</text>
</g>
<!-- 1&#45;&gt;0 -->
<g id="edge1" class="edge">
<title>1&#45;&gt;0</title>
<path fill="none" stroke="#000000" d="M249.5489,-455.43C260.7911,-607.7024 282.5251,-902.0859 293.596,-1052.0392"/>
<polygon fill="none" stroke="#000000" points="283.1402,-1053.0268 295.8206,-1082.1722 304.0832,-1051.4805 283.1402,-1053.0268"/>
</g>
<!-- 2 -->
<g id="node3" class="node">
<title>2</title>
<polygon fill="#f2f2f2" stroke="#000000" points="427.1371,-1023.5 427.1371,-1265.9 865.7369,-1265.9 865.7369,-1023.5 427.1371,-1023.5"/>
<text text-anchor="middle" x="646.437" y="-1249.3" font-family="Times,serif" font-size="14.00" fill="#000000">&lt;&lt;Interface&gt;&gt;</text>
<text text-anchor="middle" x="646.437" y="-1232.5" font-family="Times,serif" font-size="14.00" fill="#000000">IERC20</text>
<polyline fill="none" stroke="#000000" points="427.1371,-1224.3 865.7369,-1224.3 "/>
<text text-anchor="middle" x="646.437" y="-1207.7" font-family="Times,serif" font-size="14.00" fill="#000000"> </text>
<polyline fill="none" stroke="#000000" points="427.1371,-1199.5 865.7369,-1199.5 "/>
<text text-anchor="start" x="435.1371" y="-1182.9" font-family="Times,serif" font-size="14.00" fill="#000000">External:</text>
<text text-anchor="start" x="435.1371" y="-1166.1" font-family="Times,serif" font-size="14.00" fill="#000000"> &#160;&#160;&#160;&#160;totalSupply(): uint256</text>
<text text-anchor="start" x="435.1371" y="-1149.3" font-family="Times,serif" font-size="14.00" fill="#000000"> &#160;&#160;&#160;&#160;balanceOf(account: address): uint256</text>
<text text-anchor="start" x="435.1371" y="-1132.5" font-family="Times,serif" font-size="14.00" fill="#000000"> &#160;&#160;&#160;&#160;transfer(recipient: address, amount: uint256): bool</text>
<text text-anchor="start" x="435.1371" y="-1115.7" font-family="Times,serif" font-size="14.00" fill="#000000"> &#160;&#160;&#160;&#160;allowance(owner: address, spender: address): uint256</text>
<text text-anchor="start" x="435.1371" y="-1098.9" font-family="Times,serif" font-size="14.00" fill="#000000"> &#160;&#160;&#160;&#160;approve(spender: address, amount: uint256): bool</text>
<text text-anchor="start" x="435.1371" y="-1082.1" font-family="Times,serif" font-size="14.00" fill="#000000"> &#160;&#160;&#160;&#160;transferFrom(sender: address, recipient: address, amount: uint256): bool</text>
<text text-anchor="start" x="435.1371" y="-1065.3" font-family="Times,serif" font-size="14.00" fill="#000000">Public:</text>
<text text-anchor="start" x="435.1371" y="-1048.5" font-family="Times,serif" font-size="14.00" fill="#000000"> &#160;&#160;&#160;&lt;&lt;event&gt;&gt; Transfer(from: address, to: address, value: uint256)</text>
<text text-anchor="start" x="435.1371" y="-1031.7" font-family="Times,serif" font-size="14.00" fill="#000000"> &#160;&#160;&#160;&lt;&lt;event&gt;&gt; Approval(owner: address, spender: address, value: uint256)</text>
</g>
<!-- 3 -->
<g id="node4" class="node">
<title>3</title>
<polygon fill="#f2f2f2" stroke="#000000" points="1498.7406,-1031.9 1498.7406,-1257.5 1856.1334,-1257.5 1856.1334,-1031.9 1498.7406,-1031.9"/>
<text text-anchor="middle" x="1677.437" y="-1240.9" font-family="Times,serif" font-size="14.00" fill="#000000">&lt;&lt;Library&gt;&gt;</text>
<text text-anchor="middle" x="1677.437" y="-1224.1" font-family="Times,serif" font-size="14.00" fill="#000000">SafeMath</text>
<polyline fill="none" stroke="#000000" points="1498.7406,-1215.9 1856.1334,-1215.9 "/>
<text text-anchor="middle" x="1677.437" y="-1199.3" font-family="Times,serif" font-size="14.00" fill="#000000"> </text>
<polyline fill="none" stroke="#000000" points="1498.7406,-1191.1 1856.1334,-1191.1 "/>
<text text-anchor="start" x="1506.7406" y="-1174.5" font-family="Times,serif" font-size="14.00" fill="#000000">Internal:</text>
<text text-anchor="start" x="1506.7406" y="-1157.7" font-family="Times,serif" font-size="14.00" fill="#000000"> &#160;&#160;&#160;add(a: uint256, b: uint256): uint256</text>
<text text-anchor="start" x="1506.7406" y="-1140.9" font-family="Times,serif" font-size="14.00" fill="#000000"> &#160;&#160;&#160;sub(a: uint256, b: uint256): uint256</text>
<text text-anchor="start" x="1506.7406" y="-1124.1" font-family="Times,serif" font-size="14.00" fill="#000000"> &#160;&#160;&#160;sub(a: uint256, b: uint256, errorMessage: string): uint256</text>
<text text-anchor="start" x="1506.7406" y="-1107.3" font-family="Times,serif" font-size="14.00" fill="#000000"> &#160;&#160;&#160;mul(a: uint256, b: uint256): uint256</text>
<text text-anchor="start" x="1506.7406" y="-1090.5" font-family="Times,serif" font-size="14.00" fill="#000000"> &#160;&#160;&#160;div(a: uint256, b: uint256): uint256</text>
<text text-anchor="start" x="1506.7406" y="-1073.7" font-family="Times,serif" font-size="14.00" fill="#000000"> &#160;&#160;&#160;div(a: uint256, b: uint256, errorMessage: string): uint256</text>
<text text-anchor="start" x="1506.7406" y="-1056.9" font-family="Times,serif" font-size="14.00" fill="#000000"> &#160;&#160;&#160;mod(a: uint256, b: uint256): uint256</text>
<text text-anchor="start" x="1506.7406" y="-1040.1" font-family="Times,serif" font-size="14.00" fill="#000000"> &#160;&#160;&#160;mod(a: uint256, b: uint256, errorMessage: string): uint256</text>
</g>
<!-- 4 -->
<g id="node5" class="node">
<title>4</title>
<polygon fill="#f2f2f2" stroke="#000000" points="884.2198,-1031.9 884.2198,-1257.5 1480.6542,-1257.5 1480.6542,-1031.9 884.2198,-1031.9"/>
<text text-anchor="middle" x="1182.437" y="-1240.9" font-family="Times,serif" font-size="14.00" fill="#000000">&lt;&lt;Library&gt;&gt;</text>
<text text-anchor="middle" x="1182.437" y="-1224.1" font-family="Times,serif" font-size="14.00" fill="#000000">Address</text>
<polyline fill="none" stroke="#000000" points="884.2198,-1215.9 1480.6542,-1215.9 "/>
<text text-anchor="middle" x="1182.437" y="-1199.3" font-family="Times,serif" font-size="14.00" fill="#000000"> </text>
<polyline fill="none" stroke="#000000" points="884.2198,-1191.1 1480.6542,-1191.1 "/>
<text text-anchor="start" x="892.2198" y="-1174.5" font-family="Times,serif" font-size="14.00" fill="#000000">Private:</text>
<text text-anchor="start" x="892.2198" y="-1157.7" font-family="Times,serif" font-size="14.00" fill="#000000"> &#160;&#160;&#160;_functionCallWithValue(target: address, data: bytes, weiValue: uint256, errorMessage: string): bytes</text>
<text text-anchor="start" x="892.2198" y="-1140.9" font-family="Times,serif" font-size="14.00" fill="#000000">Internal:</text>
<text text-anchor="start" x="892.2198" y="-1124.1" font-family="Times,serif" font-size="14.00" fill="#000000"> &#160;&#160;&#160;isContract(account: address): bool</text>
<text text-anchor="start" x="892.2198" y="-1107.3" font-family="Times,serif" font-size="14.00" fill="#000000"> &#160;&#160;&#160;sendValue(recipient: address, amount: uint256)</text>
<text text-anchor="start" x="892.2198" y="-1090.5" font-family="Times,serif" font-size="14.00" fill="#000000"> &#160;&#160;&#160;functionCall(target: address, data: bytes): bytes</text>
<text text-anchor="start" x="892.2198" y="-1073.7" font-family="Times,serif" font-size="14.00" fill="#000000"> &#160;&#160;&#160;functionCall(target: address, data: bytes, errorMessage: string): bytes</text>
<text text-anchor="start" x="892.2198" y="-1056.9" font-family="Times,serif" font-size="14.00" fill="#000000"> &#160;&#160;&#160;functionCallWithValue(target: address, data: bytes, value: uint256): bytes</text>
<text text-anchor="start" x="892.2198" y="-1040.1" font-family="Times,serif" font-size="14.00" fill="#000000"> &#160;&#160;&#160;functionCallWithValue(target: address, data: bytes, value: uint256, errorMessage: string): bytes</text>
</g>
<!-- 5 -->
<g id="node6" class="node">
<title>5</title>
<polygon fill="#f2f2f2" stroke="#000000" points="428.8871,-492.1 428.8871,-986.5 863.9869,-986.5 863.9869,-492.1 428.8871,-492.1"/>
<text text-anchor="middle" x="646.437" y="-969.9" font-family="Times,serif" font-size="14.00" fill="#000000">ERC20</text>
<polyline fill="none" stroke="#000000" points="428.8871,-961.7 863.9869,-961.7 "/>
<text text-anchor="start" x="436.8871" y="-945.1" font-family="Times,serif" font-size="14.00" fill="#000000">Private:</text>
<text text-anchor="start" x="436.8871" y="-928.3" font-family="Times,serif" font-size="14.00" fill="#000000"> &#160;&#160;_balances: mapping(address=&gt;uint256)</text>
<text text-anchor="start" x="436.8871" y="-911.5" font-family="Times,serif" font-size="14.00" fill="#000000"> &#160;&#160;_allowances: mapping(address=&gt;mapping(address=&gt;uint256))</text>
<text text-anchor="start" x="436.8871" y="-894.7" font-family="Times,serif" font-size="14.00" fill="#000000"> &#160;&#160;_totalSupply: uint256</text>
<text text-anchor="start" x="436.8871" y="-877.9" font-family="Times,serif" font-size="14.00" fill="#000000"> &#160;&#160;_name: string</text>
<text text-anchor="start" x="436.8871" y="-861.1" font-family="Times,serif" font-size="14.00" fill="#000000"> &#160;&#160;_symbol: string</text>
<text text-anchor="start" x="436.8871" y="-844.3" font-family="Times,serif" font-size="14.00" fill="#000000"> &#160;&#160;_decimals: uint8</text>
<polyline fill="none" stroke="#000000" points="428.8871,-836.1 863.9869,-836.1 "/>
<text text-anchor="start" x="436.8871" y="-819.5" font-family="Times,serif" font-size="14.00" fill="#000000">Internal:</text>
<text text-anchor="start" x="436.8871" y="-802.7" font-family="Times,serif" font-size="14.00" fill="#000000"> &#160;&#160;&#160;_transfer(sender: address, recipient: address, amount: uint256)</text>
<text text-anchor="start" x="436.8871" y="-785.9" font-family="Times,serif" font-size="14.00" fill="#000000"> &#160;&#160;&#160;_mint(account: address, amount: uint256)</text>
<text text-anchor="start" x="436.8871" y="-769.1" font-family="Times,serif" font-size="14.00" fill="#000000"> &#160;&#160;&#160;_burn(account: address, amount: uint256)</text>
<text text-anchor="start" x="436.8871" y="-752.3" font-family="Times,serif" font-size="14.00" fill="#000000"> &#160;&#160;&#160;_approve(owner: address, spender: address, amount: uint256)</text>
<text text-anchor="start" x="436.8871" y="-735.5" font-family="Times,serif" font-size="14.00" fill="#000000"> &#160;&#160;&#160;_setupDecimals(decimals_: uint8)</text>
<text text-anchor="start" x="436.8871" y="-718.7" font-family="Times,serif" font-size="14.00" fill="#000000"> &#160;&#160;&#160;_beforeTokenTransfer(from: address, to: address, amount: uint256)</text>
<text text-anchor="start" x="436.8871" y="-701.9" font-family="Times,serif" font-size="14.00" fill="#000000">Public:</text>
<text text-anchor="start" x="436.8871" y="-685.1" font-family="Times,serif" font-size="14.00" fill="#000000"> &#160;&#160;&#160;transfer(recipient: address, amount: uint256): bool</text>
<text text-anchor="start" x="436.8871" y="-668.3" font-family="Times,serif" font-size="14.00" fill="#000000"> &#160;&#160;&#160;constructor(name: string, symbol: string)</text>
<text text-anchor="start" x="436.8871" y="-651.5" font-family="Times,serif" font-size="14.00" fill="#000000"> &#160;&#160;&#160;symbol(): string</text>
<text text-anchor="start" x="436.8871" y="-634.7" font-family="Times,serif" font-size="14.00" fill="#000000"> &#160;&#160;&#160;decimals(): uint8</text>
<text text-anchor="start" x="436.8871" y="-617.9" font-family="Times,serif" font-size="14.00" fill="#000000"> &#160;&#160;&#160;totalSupply(): uint256</text>
<text text-anchor="start" x="436.8871" y="-601.1" font-family="Times,serif" font-size="14.00" fill="#000000"> &#160;&#160;&#160;balanceOf(account: address): uint256</text>
<text text-anchor="start" x="436.8871" y="-584.3" font-family="Times,serif" font-size="14.00" fill="#000000"> &#160;&#160;&#160;name(): string</text>
<text text-anchor="start" x="436.8871" y="-567.5" font-family="Times,serif" font-size="14.00" fill="#000000"> &#160;&#160;&#160;allowance(owner: address, spender: address): uint256</text>
<text text-anchor="start" x="436.8871" y="-550.7" font-family="Times,serif" font-size="14.00" fill="#000000"> &#160;&#160;&#160;approve(spender: address, amount: uint256): bool</text>
<text text-anchor="start" x="436.8871" y="-533.9" font-family="Times,serif" font-size="14.00" fill="#000000"> &#160;&#160;&#160;transferFrom(sender: address, recipient: address, amount: uint256): bool</text>
<text text-anchor="start" x="436.8871" y="-517.1" font-family="Times,serif" font-size="14.00" fill="#000000"> &#160;&#160;&#160;increaseAllowance(spender: address, addedValue: uint256): bool</text>
<text text-anchor="start" x="436.8871" y="-500.3" font-family="Times,serif" font-size="14.00" fill="#000000"> &#160;&#160;&#160;decreaseAllowance(spender: address, subtractedValue: uint256): bool</text>
</g>
<!-- 5&#45;&gt;0 -->
<g id="edge2" class="edge">
<title>5&#45;&gt;0</title>
<path fill="none" stroke="#000000" d="M435.4482,-986.5105C413.4226,-1012.3174 392.2612,-1037.1117 373.4894,-1059.1062"/>
<polygon fill="none" stroke="#000000" points="365.2515,-1052.5842 353.7627,-1082.2196 381.2248,-1066.217 365.2515,-1052.5842"/>
</g>
<!-- 5&#45;&gt;2 -->
<g id="edge3" class="edge">
<title>5&#45;&gt;2</title>
<path fill="none" stroke="#000000" stroke-dasharray="5,2" d="M646.437,-986.5105C646.437,-988.667 646.437,-990.8164 646.437,-992.9577"/>
<polygon fill="none" stroke="#000000" points="635.9371,-993.2275 646.437,-1023.2276 656.9371,-993.2276 635.9371,-993.2275"/>
</g>
<!-- 5&#45;&gt;3 -->
<g id="edge4" class="edge">
<title>5&#45;&gt;3</title>
<path fill="none" stroke="#000000" stroke-dasharray="5,2" d="M863.9891,-843.1218C977.2471,-893.3549 1119.3311,-950.5293 1251.437,-987 1354.5604,-1015.4694 1389.4012,-985.0819 1489.437,-1023 1493.4249,-1024.5116 1497.4161,-1026.1171 1501.4032,-1027.8056"/>
<polygon fill="#000000" stroke="#000000" points="1500.1321,-1031.0701 1510.6951,-1031.8912 1502.9497,-1024.6621 1500.1321,-1031.0701"/>
</g>
<!-- 5&#45;&gt;4 -->
<g id="edge5" class="edge">
<title>5&#45;&gt;4</title>
<path fill="none" stroke="#000000" stroke-dasharray="5,2" d="M864.0623,-903.8995C918.0182,-944.7086 974.8,-987.6552 1025.2297,-1025.7973"/>
<polygon fill="#000000" stroke="#000000" points="1023.1804,-1028.6357 1033.2674,-1031.8766 1027.4031,-1023.0527 1023.1804,-1028.6357"/>
</g>
<!-- 6 -->
<g id="node7" class="node">
<title>6</title>
<polygon fill="#f2f2f2" stroke="#000000" points="502.7434,-296.7 502.7434,-421.5 790.1306,-421.5 790.1306,-296.7 502.7434,-296.7"/>
<text text-anchor="middle" x="646.437" y="-404.9" font-family="Times,serif" font-size="14.00" fill="#000000">&lt;&lt;Abstract&gt;&gt;</text>
<text text-anchor="middle" x="646.437" y="-388.1" font-family="Times,serif" font-size="14.00" fill="#000000">ERC20Burnable</text>
<polyline fill="none" stroke="#000000" points="502.7434,-379.9 790.1306,-379.9 "/>
<text text-anchor="middle" x="646.437" y="-363.3" font-family="Times,serif" font-size="14.00" fill="#000000"> </text>
<polyline fill="none" stroke="#000000" points="502.7434,-355.1 790.1306,-355.1 "/>
<text text-anchor="start" x="510.7434" y="-338.5" font-family="Times,serif" font-size="14.00" fill="#000000">Public:</text>
<text text-anchor="start" x="510.7434" y="-321.7" font-family="Times,serif" font-size="14.00" fill="#000000"> &#160;&#160;&#160;burn(amount: uint256)</text>
<text text-anchor="start" x="510.7434" y="-304.9" font-family="Times,serif" font-size="14.00" fill="#000000"> &#160;&#160;&#160;burnFrom(account: address, amount: uint256)</text>
</g>
<!-- 6&#45;&gt;0 -->
<g id="edge6" class="edge">
<title>6&#45;&gt;0</title>
<path fill="none" stroke="#000000" d="M550.6907,-421.7375C531.928,-433.3696 512.2353,-445.1407 493.437,-455.6 461.4767,-473.3825 441.5458,-462.4644 419.437,-491.6 293.3718,-657.7324 286.0668,-915.3067 292.6185,-1052.0524"/>
<polygon fill="none" stroke="#000000" points="282.1425,-1052.7706 294.3797,-1082.1049 303.1065,-1051.5419 282.1425,-1052.7706"/>
</g>
<!-- 6&#45;&gt;3 -->
<g id="edge8" class="edge">
<title>6&#45;&gt;3</title>
<path fill="none" stroke="#000000" stroke-dasharray="5,2" d="M742.1833,-421.7375C760.946,-433.3696 780.6387,-445.1407 799.437,-455.6 831.3973,-473.3825 844.7356,-468.9304 873.437,-491.6 1096.8316,-668.0464 1033.3912,-843.8221 1279.437,-987 1361.2828,-1034.6274 1401.2239,-988.568 1489.437,-1023 1493.2004,-1024.469 1496.968,-1026.0192 1500.7333,-1027.6416"/>
<polygon fill="#000000" stroke="#000000" points="1499.5263,-1030.9357 1510.0843,-1031.8182 1502.381,-1024.5442 1499.5263,-1030.9357"/>
</g>
<!-- 6&#45;&gt;5 -->
<g id="edge7" class="edge">
<title>6&#45;&gt;5</title>
<path fill="none" stroke="#000000" d="M646.437,-421.8823C646.437,-434.1095 646.437,-447.6372 646.437,-462.0142"/>
<polygon fill="none" stroke="#000000" points="635.9371,-462.0671 646.437,-492.0672 656.9371,-462.0672 635.9371,-462.0671"/>
</g>
<!-- 7 -->
<g id="node8" class="node">
<title>7</title>
<polygon fill="#f2f2f2" stroke="#000000" points="808.3089,-271.5 808.3089,-446.7 1216.5651,-446.7 1216.5651,-271.5 808.3089,-271.5"/>
<text text-anchor="middle" x="1012.437" y="-430.1" font-family="Times,serif" font-size="14.00" fill="#000000">&lt;&lt;Abstract&gt;&gt;</text>
<text text-anchor="middle" x="1012.437" y="-413.3" font-family="Times,serif" font-size="14.00" fill="#000000">ERC20Capped</text>
<polyline fill="none" stroke="#000000" points="808.3089,-405.1 1216.5651,-405.1 "/>
<text text-anchor="start" x="816.3089" y="-388.5" font-family="Times,serif" font-size="14.00" fill="#000000">Private:</text>
<text text-anchor="start" x="816.3089" y="-371.7" font-family="Times,serif" font-size="14.00" fill="#000000"> &#160;&#160;_cap: uint256</text>
<polyline fill="none" stroke="#000000" points="808.3089,-363.5 1216.5651,-363.5 "/>
<text text-anchor="start" x="816.3089" y="-346.9" font-family="Times,serif" font-size="14.00" fill="#000000">Internal:</text>
<text text-anchor="start" x="816.3089" y="-330.1" font-family="Times,serif" font-size="14.00" fill="#000000"> &#160;&#160;&#160;_beforeTokenTransfer(from: address, to: address, amount: uint256)</text>
<text text-anchor="start" x="816.3089" y="-313.3" font-family="Times,serif" font-size="14.00" fill="#000000">Public:</text>
<text text-anchor="start" x="816.3089" y="-296.5" font-family="Times,serif" font-size="14.00" fill="#000000"> &#160;&#160;&#160;constructor(cap: uint256)</text>
<text text-anchor="start" x="816.3089" y="-279.7" font-family="Times,serif" font-size="14.00" fill="#000000"> &#160;&#160;&#160;cap(): uint256</text>
</g>
<!-- 7&#45;&gt;3 -->
<g id="edge10" class="edge">
<title>7&#45;&gt;3</title>
<path fill="none" stroke="#000000" stroke-dasharray="5,2" d="M1207.0083,-446.7123C1238.7666,-463.1319 1265.7535,-479.0537 1279.437,-491.6 1444.8729,-643.2869 1565.362,-879.409 1628.1307,-1022.3237"/>
<polygon fill="#000000" stroke="#000000" points="1624.9722,-1023.8368 1632.1815,-1031.6006 1631.3873,-1021.0356 1624.9722,-1023.8368"/>
</g>
<!-- 7&#45;&gt;5 -->
<g id="edge9" class="edge">
<title>7&#45;&gt;5</title>
<path fill="none" stroke="#000000" d="M928.0097,-446.8029C914.5118,-460.8245 899.9941,-475.9055 884.9218,-491.5626"/>
<polygon fill="none" stroke="#000000" points="877.3098,-484.3298 864.0685,-513.2248 892.4389,-498.8939 877.3098,-484.3298"/>
</g>
<!-- 8 -->
<g id="node9" class="node">
<title>8</title>
<polygon fill="#f2f2f2" stroke="#000000" points="1234.1855,-313.5 1234.1855,-404.7 1452.6885,-404.7 1452.6885,-313.5 1234.1855,-313.5"/>
<text text-anchor="middle" x="1343.437" y="-388.1" font-family="Times,serif" font-size="14.00" fill="#000000">Receiver</text>
<polyline fill="none" stroke="#000000" points="1234.1855,-379.9 1452.6885,-379.9 "/>
<text text-anchor="middle" x="1343.437" y="-363.3" font-family="Times,serif" font-size="14.00" fill="#000000"> </text>
<polyline fill="none" stroke="#000000" points="1234.1855,-355.1 1452.6885,-355.1 "/>
<text text-anchor="start" x="1242.1855" y="-338.5" font-family="Times,serif" font-size="14.00" fill="#000000">Public:</text>
<text text-anchor="start" x="1242.1855" y="-321.7" font-family="Times,serif" font-size="14.00" fill="#000000"> &#160;&#160;&#160;constructor(feeReceiver: address)</text>
</g>
<!-- 9 -->
<g id="node10" class="node">
<title>9</title>
<polygon fill="#f2f2f2" stroke="#000000" points="485.9067,-.5 485.9067,-226.1 1172.9673,-226.1 1172.9673,-.5 485.9067,-.5"/>
<text text-anchor="middle" x="829.437" y="-209.5" font-family="Times,serif" font-size="14.00" fill="#000000">CommonERC20</text>
<polyline fill="none" stroke="#000000" points="485.9067,-201.3 1172.9673,-201.3 "/>
<text text-anchor="start" x="493.9067" y="-184.7" font-family="Times,serif" font-size="14.00" fill="#000000">Private:</text>
<text text-anchor="start" x="493.9067" y="-167.9" font-family="Times,serif" font-size="14.00" fill="#000000"> &#160;&#160;_mintingFinished: bool</text>
<polyline fill="none" stroke="#000000" points="485.9067,-159.7 1172.9673,-159.7 "/>
<text text-anchor="start" x="493.9067" y="-143.1" font-family="Times,serif" font-size="14.00" fill="#000000">Internal:</text>
<text text-anchor="start" x="493.9067" y="-126.3" font-family="Times,serif" font-size="14.00" fill="#000000"> &#160;&#160;&#160;_beforeTokenTransfer(from: address, to: address, amount: uint256)</text>
<text text-anchor="start" x="493.9067" y="-109.5" font-family="Times,serif" font-size="14.00" fill="#000000">Public:</text>
<text text-anchor="start" x="493.9067" y="-92.7" font-family="Times,serif" font-size="14.00" fill="#000000"> &#160;&#160;&#160;&lt;&lt;event&gt;&gt; MintFinished()</text>
<text text-anchor="start" x="493.9067" y="-75.9" font-family="Times,serif" font-size="14.00" fill="#000000"> &#160;&#160;&#160;&lt;&lt;modifier&gt;&gt; canMint()</text>
<text text-anchor="start" x="493.9067" y="-59.1" font-family="Times,serif" font-size="14.00" fill="#000000"> &#160;&#160;&#160;constructor(name: string, symbol: string, decimals: uint8, cap: uint256, initialBalance: uint256, feeReceiver: address)</text>
<text text-anchor="start" x="493.9067" y="-42.3" font-family="Times,serif" font-size="14.00" fill="#000000"> &#160;&#160;&#160;mintingFinished(): bool</text>
<text text-anchor="start" x="493.9067" y="-25.5" font-family="Times,serif" font-size="14.00" fill="#000000"> &#160;&#160;&#160;mint(to: address, value: uint256)</text>
<text text-anchor="start" x="493.9067" y="-8.7" font-family="Times,serif" font-size="14.00" fill="#000000"> &#160;&#160;&#160;finishMinting()</text>
</g>
<!-- 9&#45;&gt;1 -->
<g id="edge13" class="edge">
<title>9&#45;&gt;1</title>
<path fill="none" stroke="#000000" d="M559.9892,-226.1284C540.0161,-234.4919 519.8935,-242.9181 499.9946,-251.2505"/>
<polygon fill="none" stroke="#000000" points="495.6662,-241.6795 472.0499,-262.9521 503.7773,-261.0499 495.6662,-241.6795"/>
</g>
<!-- 9&#45;&gt;6 -->
<g id="edge12" class="edge">
<title>9&#45;&gt;6</title>
<path fill="none" stroke="#000000" d="M745.4354,-226.1284C733.8783,-241.6516 722.1605,-257.3905 711.0264,-272.3456"/>
<polygon fill="none" stroke="#000000" points="702.4638,-266.2638 692.9706,-296.5975 719.3081,-278.8045 702.4638,-266.2638"/>
</g>
<!-- 9&#45;&gt;7 -->
<g id="edge11" class="edge">
<title>9&#45;&gt;7</title>
<path fill="none" stroke="#000000" d="M913.4386,-226.1284C918.6358,-233.1091 923.8655,-240.1334 929.0599,-247.1105"/>
<polygon fill="none" stroke="#000000" points="920.6944,-253.457 947.0319,-271.2499 937.5387,-240.9162 920.6944,-253.457"/>
</g>
<!-- 9&#45;&gt;8 -->
<g id="edge14" class="edge">
<title>9&#45;&gt;8</title>
<path fill="none" stroke="#000000" d="M1155.188,-226.1508C1179.402,-237.5449 1203.0794,-249.7091 1225.437,-262.6 1241.1523,-271.6611 1256.9119,-282.7885 1271.5653,-294.2259"/>
<polygon fill="none" stroke="#000000" points="1265.1315,-302.5293 1294.9784,-313.457 1278.4606,-286.3016 1265.1315,-302.5293"/>
</g>
</g>
</svg>
