<?xml version="1.0" encoding="UTF-8" standalone="no"?>
<!DOCTYPE svg PUBLIC "-//W3C//DTD SVG 1.1//EN"
 "http://www.w3.org/Graphics/SVG/1.1/DTD/svg11.dtd">
<!-- Generated by graphviz version 2.40.1 (20161225.0304)
 -->
<!-- Title: UmlClassDiagram Pages: 1 -->
<svg width="3099pt" height="1409pt"
 viewBox="0.00 0.00 3099.11 1408.80" xmlns="http://www.w3.org/2000/svg" xmlns:xlink="http://www.w3.org/1999/xlink">
<g id="graph0" class="graph" transform="scale(1 1) rotate(0) translate(4 1404.8)">
<title>UmlClassDiagram</title>
<polygon fill="#ffffff" stroke="transparent" points="-4,4 -4,-1404.8 3095.1079,-1404.8 3095.1079,4 -4,4"/>
<!-- 9 -->
<g id="node1" class="node">
<title>9</title>
<polygon fill="#f2f2f2" stroke="#000000" points="1276.3968,-819.7 1276.3968,-927.7 1810.996,-927.7 1810.996,-819.7 1276.3968,-819.7"/>
<text text-anchor="middle" x="1543.6964" y="-911.1" font-family="Times,serif" font-size="14.00" fill="#000000">&lt;&lt;Interface&gt;&gt;</text>
<text text-anchor="middle" x="1543.6964" y="-894.3" font-family="Times,serif" font-size="14.00" fill="#000000">IERC1363Receiver</text>
<polyline fill="none" stroke="#000000" points="1276.3968,-886.1 1810.996,-886.1 "/>
<text text-anchor="middle" x="1543.6964" y="-869.5" font-family="Times,serif" font-size="14.00" fill="#000000"> </text>
<polyline fill="none" stroke="#000000" points="1276.3968,-861.3 1810.996,-861.3 "/>
<text text-anchor="start" x="1284.3968" y="-844.7" font-family="Times,serif" font-size="14.00" fill="#000000">External:</text>
<text text-anchor="start" x="1284.3968" y="-827.9" font-family="Times,serif" font-size="14.00" fill="#000000"> &#160;&#160;&#160;&#160;onTransferReceived(operator: address, from: address, value: uint256, data: bytes): bytes4</text>
</g>
<!-- 0 -->
<g id="node2" class="node">
<title>0</title>
<polygon fill="#f2f2f2" stroke="#000000" points="377.6241,-1216.7 377.6241,-1341.5 595.7687,-1341.5 595.7687,-1216.7 377.6241,-1216.7"/>
<text text-anchor="middle" x="486.6964" y="-1324.9" font-family="Times,serif" font-size="14.00" fill="#000000">&lt;&lt;Abstract&gt;&gt;</text>
<text text-anchor="middle" x="486.6964" y="-1308.1" font-family="Times,serif" font-size="14.00" fill="#000000">Context</text>
<polyline fill="none" stroke="#000000" points="377.6241,-1299.9 595.7687,-1299.9 "/>
<text text-anchor="middle" x="486.6964" y="-1283.3" font-family="Times,serif" font-size="14.00" fill="#000000"> </text>
<polyline fill="none" stroke="#000000" points="377.6241,-1275.1 595.7687,-1275.1 "/>
<text text-anchor="start" x="385.6241" y="-1258.5" font-family="Times,serif" font-size="14.00" fill="#000000">Internal:</text>
<text text-anchor="start" x="385.6241" y="-1241.7" font-family="Times,serif" font-size="14.00" fill="#000000"> &#160;&#160;&#160;_msgSender(): (payable: address)</text>
<text text-anchor="start" x="385.6241" y="-1224.9" font-family="Times,serif" font-size="14.00" fill="#000000"> &#160;&#160;&#160;_msgData(): bytes</text>
</g>
<!-- 2 -->
<g id="node3" class="node">
<title>2</title>
<polygon fill="#f2f2f2" stroke="#000000" points="0,-1166.3 0,-1391.9 357.3928,-1391.9 357.3928,-1166.3 0,-1166.3"/>
<text text-anchor="middle" x="178.6964" y="-1375.3" font-family="Times,serif" font-size="14.00" fill="#000000">&lt;&lt;Library&gt;&gt;</text>
<text text-anchor="middle" x="178.6964" y="-1358.5" font-family="Times,serif" font-size="14.00" fill="#000000">SafeMath</text>
<polyline fill="none" stroke="#000000" points="0,-1350.3 357.3928,-1350.3 "/>
<text text-anchor="middle" x="178.6964" y="-1333.7" font-family="Times,serif" font-size="14.00" fill="#000000"> </text>
<polyline fill="none" stroke="#000000" points="0,-1325.5 357.3928,-1325.5 "/>
<text text-anchor="start" x="8" y="-1308.9" font-family="Times,serif" font-size="14.00" fill="#000000">Internal:</text>
<text text-anchor="start" x="8" y="-1292.1" font-family="Times,serif" font-size="14.00" fill="#000000"> &#160;&#160;&#160;add(a: uint256, b: uint256): uint256</text>
<text text-anchor="start" x="8" y="-1275.3" font-family="Times,serif" font-size="14.00" fill="#000000"> &#160;&#160;&#160;sub(a: uint256, b: uint256): uint256</text>
<text text-anchor="start" x="8" y="-1258.5" font-family="Times,serif" font-size="14.00" fill="#000000"> &#160;&#160;&#160;sub(a: uint256, b: uint256, errorMessage: string): uint256</text>
<text text-anchor="start" x="8" y="-1241.7" font-family="Times,serif" font-size="14.00" fill="#000000"> &#160;&#160;&#160;mul(a: uint256, b: uint256): uint256</text>
<text text-anchor="start" x="8" y="-1224.9" font-family="Times,serif" font-size="14.00" fill="#000000"> &#160;&#160;&#160;div(a: uint256, b: uint256): uint256</text>
<text text-anchor="start" x="8" y="-1208.1" font-family="Times,serif" font-size="14.00" fill="#000000"> &#160;&#160;&#160;div(a: uint256, b: uint256, errorMessage: string): uint256</text>
<text text-anchor="start" x="8" y="-1191.3" font-family="Times,serif" font-size="14.00" fill="#000000"> &#160;&#160;&#160;mod(a: uint256, b: uint256): uint256</text>
<text text-anchor="start" x="8" y="-1174.5" font-family="Times,serif" font-size="14.00" fill="#000000"> &#160;&#160;&#160;mod(a: uint256, b: uint256, errorMessage: string): uint256</text>
</g>
<!-- 3 -->
<g id="node4" class="node">
<title>3</title>
<polygon fill="#f2f2f2" stroke="#000000" points="666.4792,-1166.3 666.4792,-1391.9 1262.9136,-1391.9 1262.9136,-1166.3 666.4792,-1166.3"/>
<text text-anchor="middle" x="964.6964" y="-1375.3" font-family="Times,serif" font-size="14.00" fill="#000000">&lt;&lt;Library&gt;&gt;</text>
<text text-anchor="middle" x="964.6964" y="-1358.5" font-family="Times,serif" font-size="14.00" fill="#000000">Address</text>
<polyline fill="none" stroke="#000000" points="666.4792,-1350.3 1262.9136,-1350.3 "/>
<text text-anchor="middle" x="964.6964" y="-1333.7" font-family="Times,serif" font-size="14.00" fill="#000000"> </text>
<polyline fill="none" stroke="#000000" points="666.4792,-1325.5 1262.9136,-1325.5 "/>
<text text-anchor="start" x="674.4792" y="-1308.9" font-family="Times,serif" font-size="14.00" fill="#000000">Private:</text>
<text text-anchor="start" x="674.4792" y="-1292.1" font-family="Times,serif" font-size="14.00" fill="#000000"> &#160;&#160;&#160;_functionCallWithValue(target: address, data: bytes, weiValue: uint256, errorMessage: string): bytes</text>
<text text-anchor="start" x="674.4792" y="-1275.3" font-family="Times,serif" font-size="14.00" fill="#000000">Internal:</text>
<text text-anchor="start" x="674.4792" y="-1258.5" font-family="Times,serif" font-size="14.00" fill="#000000"> &#160;&#160;&#160;isContract(account: address): bool</text>
<text text-anchor="start" x="674.4792" y="-1241.7" font-family="Times,serif" font-size="14.00" fill="#000000"> &#160;&#160;&#160;sendValue(recipient: address, amount: uint256)</text>
<text text-anchor="start" x="674.4792" y="-1224.9" font-family="Times,serif" font-size="14.00" fill="#000000"> &#160;&#160;&#160;functionCall(target: address, data: bytes): bytes</text>
<text text-anchor="start" x="674.4792" y="-1208.1" font-family="Times,serif" font-size="14.00" fill="#000000"> &#160;&#160;&#160;functionCall(target: address, data: bytes, errorMessage: string): bytes</text>
<text text-anchor="start" x="674.4792" y="-1191.3" font-family="Times,serif" font-size="14.00" fill="#000000"> &#160;&#160;&#160;functionCallWithValue(target: address, data: bytes, value: uint256): bytes</text>
<text text-anchor="start" x="674.4792" y="-1174.5" font-family="Times,serif" font-size="14.00" fill="#000000"> &#160;&#160;&#160;functionCallWithValue(target: address, data: bytes, value: uint256, errorMessage: string): bytes</text>
</g>
<!-- 4 -->
<g id="node5" class="node">
<title>4</title>
<polygon fill="#f2f2f2" stroke="#000000" points="747.1465,-626.5 747.1465,-1120.9 1182.2463,-1120.9 1182.2463,-626.5 747.1465,-626.5"/>
<text text-anchor="middle" x="964.6964" y="-1104.3" font-family="Times,serif" font-size="14.00" fill="#000000">ERC20</text>
<polyline fill="none" stroke="#000000" points="747.1465,-1096.1 1182.2463,-1096.1 "/>
<text text-anchor="start" x="755.1465" y="-1079.5" font-family="Times,serif" font-size="14.00" fill="#000000">Private:</text>
<text text-anchor="start" x="755.1465" y="-1062.7" font-family="Times,serif" font-size="14.00" fill="#000000"> &#160;&#160;_balances: mapping(address=&gt;uint256)</text>
<text text-anchor="start" x="755.1465" y="-1045.9" font-family="Times,serif" font-size="14.00" fill="#000000"> &#160;&#160;_allowances: mapping(address=&gt;mapping(address=&gt;uint256))</text>
<text text-anchor="start" x="755.1465" y="-1029.1" font-family="Times,serif" font-size="14.00" fill="#000000"> &#160;&#160;_totalSupply: uint256</text>
<text text-anchor="start" x="755.1465" y="-1012.3" font-family="Times,serif" font-size="14.00" fill="#000000"> &#160;&#160;_name: string</text>
<text text-anchor="start" x="755.1465" y="-995.5" font-family="Times,serif" font-size="14.00" fill="#000000"> &#160;&#160;_symbol: string</text>
<text text-anchor="start" x="755.1465" y="-978.7" font-family="Times,serif" font-size="14.00" fill="#000000"> &#160;&#160;_decimals: uint8</text>
<polyline fill="none" stroke="#000000" points="747.1465,-970.5 1182.2463,-970.5 "/>
<text text-anchor="start" x="755.1465" y="-953.9" font-family="Times,serif" font-size="14.00" fill="#000000">Internal:</text>
<text text-anchor="start" x="755.1465" y="-937.1" font-family="Times,serif" font-size="14.00" fill="#000000"> &#160;&#160;&#160;_transfer(sender: address, recipient: address, amount: uint256)</text>
<text text-anchor="start" x="755.1465" y="-920.3" font-family="Times,serif" font-size="14.00" fill="#000000"> &#160;&#160;&#160;_mint(account: address, amount: uint256)</text>
<text text-anchor="start" x="755.1465" y="-903.5" font-family="Times,serif" font-size="14.00" fill="#000000"> &#160;&#160;&#160;_burn(account: address, amount: uint256)</text>
<text text-anchor="start" x="755.1465" y="-886.7" font-family="Times,serif" font-size="14.00" fill="#000000"> &#160;&#160;&#160;_approve(owner: address, spender: address, amount: uint256)</text>
<text text-anchor="start" x="755.1465" y="-869.9" font-family="Times,serif" font-size="14.00" fill="#000000"> &#160;&#160;&#160;_setupDecimals(decimals_: uint8)</text>
<text text-anchor="start" x="755.1465" y="-853.1" font-family="Times,serif" font-size="14.00" fill="#000000"> &#160;&#160;&#160;_beforeTokenTransfer(from: address, to: address, amount: uint256)</text>
<text text-anchor="start" x="755.1465" y="-836.3" font-family="Times,serif" font-size="14.00" fill="#000000">Public:</text>
<text text-anchor="start" x="755.1465" y="-819.5" font-family="Times,serif" font-size="14.00" fill="#000000"> &#160;&#160;&#160;transfer(recipient: address, amount: uint256): bool</text>
<text text-anchor="start" x="755.1465" y="-802.7" font-family="Times,serif" font-size="14.00" fill="#000000"> &#160;&#160;&#160;constructor(name: string, symbol: string)</text>
<text text-anchor="start" x="755.1465" y="-785.9" font-family="Times,serif" font-size="14.00" fill="#000000"> &#160;&#160;&#160;symbol(): string</text>
<text text-anchor="start" x="755.1465" y="-769.1" font-family="Times,serif" font-size="14.00" fill="#000000"> &#160;&#160;&#160;decimals(): uint8</text>
<text text-anchor="start" x="755.1465" y="-752.3" font-family="Times,serif" font-size="14.00" fill="#000000"> &#160;&#160;&#160;totalSupply(): uint256</text>
<text text-anchor="start" x="755.1465" y="-735.5" font-family="Times,serif" font-size="14.00" fill="#000000"> &#160;&#160;&#160;balanceOf(account: address): uint256</text>
<text text-anchor="start" x="755.1465" y="-718.7" font-family="Times,serif" font-size="14.00" fill="#000000"> &#160;&#160;&#160;name(): string</text>
<text text-anchor="start" x="755.1465" y="-701.9" font-family="Times,serif" font-size="14.00" fill="#000000"> &#160;&#160;&#160;allowance(owner: address, spender: address): uint256</text>
<text text-anchor="start" x="755.1465" y="-685.1" font-family="Times,serif" font-size="14.00" fill="#000000"> &#160;&#160;&#160;approve(spender: address, amount: uint256): bool</text>
<text text-anchor="start" x="755.1465" y="-668.3" font-family="Times,serif" font-size="14.00" fill="#000000"> &#160;&#160;&#160;transferFrom(sender: address, recipient: address, amount: uint256): bool</text>
<text text-anchor="start" x="755.1465" y="-651.5" font-family="Times,serif" font-size="14.00" fill="#000000"> &#160;&#160;&#160;increaseAllowance(spender: address, addedValue: uint256): bool</text>
<text text-anchor="start" x="755.1465" y="-634.7" font-family="Times,serif" font-size="14.00" fill="#000000"> &#160;&#160;&#160;decreaseAllowance(spender: address, subtractedValue: uint256): bool</text>
</g>
<!-- 4&#45;&gt;0 -->
<g id="edge1" class="edge">
<title>4&#45;&gt;0</title>
<path fill="none" stroke="#000000" d="M746.884,-1114.5996C743.8321,-1116.9107 740.7691,-1119.1788 737.6964,-1121.4 706.0981,-1144.2417 691.519,-1138.0033 657.6964,-1157.4 635.8915,-1169.9048 613.4214,-1184.507 592.228,-1199.1685"/>
<polygon fill="none" stroke="#000000" points="586.0108,-1190.705 567.598,-1216.6129 598.1484,-1207.8421 586.0108,-1190.705"/>
</g>
<!-- 4&#45;&gt;2 -->
<g id="edge3" class="edge">
<title>4&#45;&gt;2</title>
<path fill="none" stroke="#000000" stroke-dasharray="5,2" d="M747.023,-1116.525C743.9367,-1118.2102 740.8276,-1119.8365 737.6964,-1121.4 590.2747,-1195.0128 524.3978,-1103.464 368.6964,-1157.4 364.3096,-1158.9196 359.9217,-1160.5594 355.5423,-1162.3049"/>
<polygon fill="#000000" stroke="#000000" points="353.8587,-1159.2146 345.9722,-1166.2895 356.5493,-1165.6768 353.8587,-1159.2146"/>
</g>
<!-- 4&#45;&gt;3 -->
<g id="edge4" class="edge">
<title>4&#45;&gt;3</title>
<path fill="none" stroke="#000000" stroke-dasharray="5,2" d="M964.6964,-1120.9105C964.6964,-1132.7918 964.6964,-1144.4585 964.6964,-1155.7362"/>
<polygon fill="#000000" stroke="#000000" points="961.1965,-1155.9788 964.6964,-1165.9788 968.1965,-1155.9788 961.1965,-1155.9788"/>
</g>
<!-- 1 -->
<g id="node10" class="node">
<title>1</title>
<polygon fill="#f2f2f2" stroke="#000000" points="1281.3965,-1157.9 1281.3965,-1400.3 1719.9963,-1400.3 1719.9963,-1157.9 1281.3965,-1157.9"/>
<text text-anchor="middle" x="1500.6964" y="-1383.7" font-family="Times,serif" font-size="14.00" fill="#000000">&lt;&lt;Interface&gt;&gt;</text>
<text text-anchor="middle" x="1500.6964" y="-1366.9" font-family="Times,serif" font-size="14.00" fill="#000000">IERC20</text>
<polyline fill="none" stroke="#000000" points="1281.3965,-1358.7 1719.9963,-1358.7 "/>
<text text-anchor="middle" x="1500.6964" y="-1342.1" font-family="Times,serif" font-size="14.00" fill="#000000"> </text>
<polyline fill="none" stroke="#000000" points="1281.3965,-1333.9 1719.9963,-1333.9 "/>
<text text-anchor="start" x="1289.3965" y="-1317.3" font-family="Times,serif" font-size="14.00" fill="#000000">External:</text>
<text text-anchor="start" x="1289.3965" y="-1300.5" font-family="Times,serif" font-size="14.00" fill="#000000"> &#160;&#160;&#160;&#160;totalSupply(): uint256</text>
<text text-anchor="start" x="1289.3965" y="-1283.7" font-family="Times,serif" font-size="14.00" fill="#000000"> &#160;&#160;&#160;&#160;balanceOf(account: address): uint256</text>
<text text-anchor="start" x="1289.3965" y="-1266.9" font-family="Times,serif" font-size="14.00" fill="#000000"> &#160;&#160;&#160;&#160;transfer(recipient: address, amount: uint256): bool</text>
<text text-anchor="start" x="1289.3965" y="-1250.1" font-family="Times,serif" font-size="14.00" fill="#000000"> &#160;&#160;&#160;&#160;allowance(owner: address, spender: address): uint256</text>
<text text-anchor="start" x="1289.3965" y="-1233.3" font-family="Times,serif" font-size="14.00" fill="#000000"> &#160;&#160;&#160;&#160;approve(spender: address, amount: uint256): bool</text>
<text text-anchor="start" x="1289.3965" y="-1216.5" font-family="Times,serif" font-size="14.00" fill="#000000"> &#160;&#160;&#160;&#160;transferFrom(sender: address, recipient: address, amount: uint256): bool</text>
<text text-anchor="start" x="1289.3965" y="-1199.7" font-family="Times,serif" font-size="14.00" fill="#000000">Public:</text>
<text text-anchor="start" x="1289.3965" y="-1182.9" font-family="Times,serif" font-size="14.00" fill="#000000"> &#160;&#160;&#160;&lt;&lt;event&gt;&gt; Transfer(from: address, to: address, value: uint256)</text>
<text text-anchor="start" x="1289.3965" y="-1166.1" font-family="Times,serif" font-size="14.00" fill="#000000"> &#160;&#160;&#160;&lt;&lt;event&gt;&gt; Approval(owner: address, spender: address, value: uint256)</text>
</g>
<!-- 4&#45;&gt;1 -->
<g id="edge2" class="edge">
<title>4&#45;&gt;1</title>
<path fill="none" stroke="#000000" stroke-dasharray="5,2" d="M1182.5005,-1110.6424C1187.2113,-1114.325 1191.9453,-1117.9153 1196.6964,-1121.4 1218.8246,-1137.6297 1231.2424,-1140.4111 1253.5091,-1149.5349"/>
<polygon fill="none" stroke="#000000" points="1249.4505,-1159.2249 1281.0984,-1162.1683 1258.1936,-1140.1315 1249.4505,-1159.2249"/>
</g>
<!-- 5 -->
<g id="node6" class="node">
<title>5</title>
<polygon fill="#f2f2f2" stroke="#000000" points="371.0028,-363.9 371.0028,-488.7 658.39,-488.7 658.39,-363.9 371.0028,-363.9"/>
<text text-anchor="middle" x="514.6964" y="-472.1" font-family="Times,serif" font-size="14.00" fill="#000000">&lt;&lt;Abstract&gt;&gt;</text>
<text text-anchor="middle" x="514.6964" y="-455.3" font-family="Times,serif" font-size="14.00" fill="#000000">ERC20Burnable</text>
<polyline fill="none" stroke="#000000" points="371.0028,-447.1 658.39,-447.1 "/>
<text text-anchor="middle" x="514.6964" y="-430.5" font-family="Times,serif" font-size="14.00" fill="#000000"> </text>
<polyline fill="none" stroke="#000000" points="371.0028,-422.3 658.39,-422.3 "/>
<text text-anchor="start" x="379.0028" y="-405.7" font-family="Times,serif" font-size="14.00" fill="#000000">Public:</text>
<text text-anchor="start" x="379.0028" y="-388.9" font-family="Times,serif" font-size="14.00" fill="#000000"> &#160;&#160;&#160;burn(amount: uint256)</text>
<text text-anchor="start" x="379.0028" y="-372.1" font-family="Times,serif" font-size="14.00" fill="#000000"> &#160;&#160;&#160;burnFrom(account: address, amount: uint256)</text>
</g>
<!-- 5&#45;&gt;0 -->
<g id="edge5" class="edge">
<title>5&#45;&gt;0</title>
<path fill="none" stroke="#000000" d="M377.393,-488.8888C322.8991,-521.4313 266.0586,-566.9292 235.6964,-626 185.3698,-723.9122 168.9579,-1033.847 235.6964,-1121.4 272.3006,-1169.4204 314.609,-1126.8594 366.6964,-1157.4 384.1362,-1167.6255 400.7929,-1181.0285 415.848,-1195.1932"/>
<polygon fill="none" stroke="#000000" points="408.4474,-1202.6423 437.011,-1216.584 423.376,-1187.8728 408.4474,-1202.6423"/>
</g>
<!-- 5&#45;&gt;2 -->
<g id="edge7" class="edge">
<title>5&#45;&gt;2</title>
<path fill="none" stroke="#000000" stroke-dasharray="5,2" d="M370.7395,-469.1555C295.1228,-499.8128 209.1408,-549.4714 164.6964,-626 69.6539,-789.6534 104.4642,-1017.4524 140.2244,-1156.2374"/>
<polygon fill="#000000" stroke="#000000" points="136.8809,-1157.2861 142.799,-1166.0739 143.6528,-1155.5136 136.8809,-1157.2861"/>
</g>
<!-- 5&#45;&gt;4 -->
<g id="edge6" class="edge">
<title>5&#45;&gt;4</title>
<path fill="none" stroke="#000000" d="M564.0849,-488.7906C592.1116,-521.6036 629.211,-560.9195 667.6964,-590 688.1942,-605.4886 701.3402,-606.1952 721.6005,-616.7769"/>
<polygon fill="none" stroke="#000000" points="716.181,-625.7771 747.0619,-633.3017 727.6135,-608.1618 716.181,-625.7771"/>
</g>
<!-- 6 -->
<g id="node7" class="node">
<title>6</title>
<polygon fill="#f2f2f2" stroke="#000000" points="676.5683,-338.7 676.5683,-513.9 1084.8245,-513.9 1084.8245,-338.7 676.5683,-338.7"/>
<text text-anchor="middle" x="880.6964" y="-497.3" font-family="Times,serif" font-size="14.00" fill="#000000">&lt;&lt;Abstract&gt;&gt;</text>
<text text-anchor="middle" x="880.6964" y="-480.5" font-family="Times,serif" font-size="14.00" fill="#000000">ERC20Capped</text>
<polyline fill="none" stroke="#000000" points="676.5683,-472.3 1084.8245,-472.3 "/>
<text text-anchor="start" x="684.5683" y="-455.7" font-family="Times,serif" font-size="14.00" fill="#000000">Private:</text>
<text text-anchor="start" x="684.5683" y="-438.9" font-family="Times,serif" font-size="14.00" fill="#000000"> &#160;&#160;_cap: uint256</text>
<polyline fill="none" stroke="#000000" points="676.5683,-430.7 1084.8245,-430.7 "/>
<text text-anchor="start" x="684.5683" y="-414.1" font-family="Times,serif" font-size="14.00" fill="#000000">Internal:</text>
<text text-anchor="start" x="684.5683" y="-397.3" font-family="Times,serif" font-size="14.00" fill="#000000"> &#160;&#160;&#160;_beforeTokenTransfer(from: address, to: address, amount: uint256)</text>
<text text-anchor="start" x="684.5683" y="-380.5" font-family="Times,serif" font-size="14.00" fill="#000000">Public:</text>
<text text-anchor="start" x="684.5683" y="-363.7" font-family="Times,serif" font-size="14.00" fill="#000000"> &#160;&#160;&#160;constructor(cap: uint256)</text>
<text text-anchor="start" x="684.5683" y="-346.9" font-family="Times,serif" font-size="14.00" fill="#000000"> &#160;&#160;&#160;cap(): uint256</text>
</g>
<!-- 6&#45;&gt;2 -->
<g id="edge9" class="edge">
<title>6&#45;&gt;2</title>
<path fill="none" stroke="#000000" stroke-dasharray="5,2" d="M790.3584,-514.1084C754.8883,-543.3579 712.0622,-572.8328 667.6964,-590 577.855,-624.7638 303.9471,-558.0159 235.6964,-626 163.6369,-697.778 164.4109,-987.6547 171.4442,-1156.1185"/>
<polygon fill="#000000" stroke="#000000" points="167.955,-1156.448 171.8825,-1166.288 174.9486,-1156.1465 167.955,-1156.448"/>
</g>
<!-- 6&#45;&gt;4 -->
<g id="edge8" class="edge">
<title>6&#45;&gt;4</title>
<path fill="none" stroke="#000000" d="M897.1919,-514.158C901.8145,-538.7792 907.1006,-566.9337 912.6342,-596.407"/>
<polygon fill="none" stroke="#000000" points="902.3794,-598.6907 918.235,-626.2379 923.0188,-594.8155 902.3794,-598.6907"/>
</g>
<!-- 7 -->
<g id="node8" class="node">
<title>7</title>
<polygon fill="#f2f2f2" stroke="#000000" points="2373.2787,-1225.1 2373.2787,-1333.1 2650.1141,-1333.1 2650.1141,-1225.1 2373.2787,-1225.1"/>
<text text-anchor="middle" x="2511.6964" y="-1316.5" font-family="Times,serif" font-size="14.00" fill="#000000">&lt;&lt;Interface&gt;&gt;</text>
<text text-anchor="middle" x="2511.6964" y="-1299.7" font-family="Times,serif" font-size="14.00" fill="#000000">IERC165</text>
<polyline fill="none" stroke="#000000" points="2373.2787,-1291.5 2650.1141,-1291.5 "/>
<text text-anchor="middle" x="2511.6964" y="-1274.9" font-family="Times,serif" font-size="14.00" fill="#000000"> </text>
<polyline fill="none" stroke="#000000" points="2373.2787,-1266.7 2650.1141,-1266.7 "/>
<text text-anchor="start" x="2381.2787" y="-1250.1" font-family="Times,serif" font-size="14.00" fill="#000000">External:</text>
<text text-anchor="start" x="2381.2787" y="-1233.3" font-family="Times,serif" font-size="14.00" fill="#000000"> &#160;&#160;&#160;&#160;supportsInterface(interfaceId: bytes4): bool</text>
</g>
<!-- 8 -->
<g id="node9" class="node">
<title>8</title>
<polygon fill="#f2f2f2" stroke="#000000" points="1828.589,-777.7 1828.589,-969.7 2322.8038,-969.7 2322.8038,-777.7 1828.589,-777.7"/>
<text text-anchor="middle" x="2075.6964" y="-953.1" font-family="Times,serif" font-size="14.00" fill="#000000">&lt;&lt;Interface&gt;&gt;</text>
<text text-anchor="middle" x="2075.6964" y="-936.3" font-family="Times,serif" font-size="14.00" fill="#000000">IERC1363</text>
<polyline fill="none" stroke="#000000" points="1828.589,-928.1 2322.8038,-928.1 "/>
<text text-anchor="middle" x="2075.6964" y="-911.5" font-family="Times,serif" font-size="14.00" fill="#000000"> </text>
<polyline fill="none" stroke="#000000" points="1828.589,-903.3 2322.8038,-903.3 "/>
<text text-anchor="start" x="1836.589" y="-886.7" font-family="Times,serif" font-size="14.00" fill="#000000">External:</text>
<text text-anchor="start" x="1836.589" y="-869.9" font-family="Times,serif" font-size="14.00" fill="#000000"> &#160;&#160;&#160;&#160;transferAndCall(to: address, value: uint256): bool</text>
<text text-anchor="start" x="1836.589" y="-853.1" font-family="Times,serif" font-size="14.00" fill="#000000"> &#160;&#160;&#160;&#160;transferAndCall(to: address, value: uint256, data: bytes): bool</text>
<text text-anchor="start" x="1836.589" y="-836.3" font-family="Times,serif" font-size="14.00" fill="#000000"> &#160;&#160;&#160;&#160;transferFromAndCall(from: address, to: address, value: uint256): bool</text>
<text text-anchor="start" x="1836.589" y="-819.5" font-family="Times,serif" font-size="14.00" fill="#000000"> &#160;&#160;&#160;&#160;transferFromAndCall(from: address, to: address, value: uint256, data: bytes): bool</text>
<text text-anchor="start" x="1836.589" y="-802.7" font-family="Times,serif" font-size="14.00" fill="#000000"> &#160;&#160;&#160;&#160;approveAndCall(spender: address, value: uint256): bool</text>
<text text-anchor="start" x="1836.589" y="-785.9" font-family="Times,serif" font-size="14.00" fill="#000000"> &#160;&#160;&#160;&#160;approveAndCall(spender: address, value: uint256, data: bytes): bool</text>
</g>
<!-- 8&#45;&gt;7 -->
<g id="edge11" class="edge">
<title>8&#45;&gt;7</title>
<path fill="none" stroke="#000000" stroke-dasharray="5,2" d="M2173.2605,-969.7233C2220.8682,-1016.066 2279.2667,-1072.1616 2332.6964,-1121.4 2362.736,-1149.0832 2396.1996,-1178.8442 2425.9894,-1204.9726"/>
<polygon fill="none" stroke="#000000" points="2419.4566,-1213.2079 2448.9571,-1225.039 2433.2735,-1197.3935 2419.4566,-1213.2079"/>
</g>
<!-- 8&#45;&gt;1 -->
<g id="edge10" class="edge">
<title>8&#45;&gt;1</title>
<path fill="none" stroke="#000000" stroke-dasharray="5,2" d="M1989.9681,-969.9172C1942.8952,-1019.158 1881.6164,-1077.7512 1819.6964,-1121.4 1796.8356,-1137.5151 1772.0837,-1152.8625 1746.8246,-1167.2097"/>
<polygon fill="none" stroke="#000000" points="1741.58,-1158.111 1720.3763,-1181.7892 1751.7179,-1176.5019 1741.58,-1158.111"/>
</g>
<!-- 10 -->
<g id="node11" class="node">
<title>10</title>
<polygon fill="#f2f2f2" stroke="#000000" points="2341.285,-819.7 2341.285,-927.7 2786.1078,-927.7 2786.1078,-819.7 2341.285,-819.7"/>
<text text-anchor="middle" x="2563.6964" y="-911.1" font-family="Times,serif" font-size="14.00" fill="#000000">&lt;&lt;Interface&gt;&gt;</text>
<text text-anchor="middle" x="2563.6964" y="-894.3" font-family="Times,serif" font-size="14.00" fill="#000000">IERC1363Spender</text>
<polyline fill="none" stroke="#000000" points="2341.285,-886.1 2786.1078,-886.1 "/>
<text text-anchor="middle" x="2563.6964" y="-869.5" font-family="Times,serif" font-size="14.00" fill="#000000"> </text>
<polyline fill="none" stroke="#000000" points="2341.285,-861.3 2786.1078,-861.3 "/>
<text text-anchor="start" x="2349.285" y="-844.7" font-family="Times,serif" font-size="14.00" fill="#000000">External:</text>
<text text-anchor="start" x="2349.285" y="-827.9" font-family="Times,serif" font-size="14.00" fill="#000000"> &#160;&#160;&#160;&#160;onApprovalReceived(owner: address, value: uint256, data: bytes): bytes4</text>
</g>
<!-- 11 -->
<g id="node12" class="node">
<title>11</title>
<polygon fill="#f2f2f2" stroke="#000000" points="1656.5837,-.5 1656.5837,-226.1 2148.8091,-226.1 2148.8091,-.5 1656.5837,-.5"/>
<text text-anchor="middle" x="1902.6964" y="-209.5" font-family="Times,serif" font-size="14.00" fill="#000000">&lt;&lt;Library&gt;&gt;</text>
<text text-anchor="middle" x="1902.6964" y="-192.7" font-family="Times,serif" font-size="14.00" fill="#000000">ERC165Checker</text>
<polyline fill="none" stroke="#000000" points="1656.5837,-184.5 2148.8091,-184.5 "/>
<text text-anchor="start" x="1664.5837" y="-167.9" font-family="Times,serif" font-size="14.00" fill="#000000">Private:</text>
<text text-anchor="start" x="1664.5837" y="-151.1" font-family="Times,serif" font-size="14.00" fill="#000000"> &#160;&#160;_INTERFACE_ID_INVALID: bytes4</text>
<text text-anchor="start" x="1664.5837" y="-134.3" font-family="Times,serif" font-size="14.00" fill="#000000"> &#160;&#160;_INTERFACE_ID_ERC165: bytes4</text>
<polyline fill="none" stroke="#000000" points="1656.5837,-126.1 2148.8091,-126.1 "/>
<text text-anchor="start" x="1664.5837" y="-109.5" font-family="Times,serif" font-size="14.00" fill="#000000">Private:</text>
<text text-anchor="start" x="1664.5837" y="-92.7" font-family="Times,serif" font-size="14.00" fill="#000000"> &#160;&#160;&#160;_supportsERC165Interface(account: address, interfaceId: bytes4): bool</text>
<text text-anchor="start" x="1664.5837" y="-75.9" font-family="Times,serif" font-size="14.00" fill="#000000"> &#160;&#160;&#160;_callERC165SupportsInterface(account: address, interfaceId: bytes4): (bool, bool)</text>
<text text-anchor="start" x="1664.5837" y="-59.1" font-family="Times,serif" font-size="14.00" fill="#000000">Internal:</text>
<text text-anchor="start" x="1664.5837" y="-42.3" font-family="Times,serif" font-size="14.00" fill="#000000"> &#160;&#160;&#160;supportsERC165(account: address): bool</text>
<text text-anchor="start" x="1664.5837" y="-25.5" font-family="Times,serif" font-size="14.00" fill="#000000"> &#160;&#160;&#160;supportsInterface(account: address, interfaceId: bytes4): bool</text>
<text text-anchor="start" x="1664.5837" y="-8.7" font-family="Times,serif" font-size="14.00" fill="#000000"> &#160;&#160;&#160;supportsAllInterfaces(account: address, interfaceIds: bytes4[]): bool</text>
</g>
<!-- 12 -->
<g id="node13" class="node">
<title>12</title>
<polygon fill="#f2f2f2" stroke="#000000" points="2804.2849,-786.1 2804.2849,-961.3 3091.1079,-961.3 3091.1079,-786.1 2804.2849,-786.1"/>
<text text-anchor="middle" x="2947.6964" y="-944.7" font-family="Times,serif" font-size="14.00" fill="#000000">ERC165</text>
<polyline fill="none" stroke="#000000" points="2804.2849,-936.5 3091.1079,-936.5 "/>
<text text-anchor="start" x="2812.2849" y="-919.9" font-family="Times,serif" font-size="14.00" fill="#000000">Private:</text>
<text text-anchor="start" x="2812.2849" y="-903.1" font-family="Times,serif" font-size="14.00" fill="#000000"> &#160;&#160;_INTERFACE_ID_ERC165: bytes4</text>
<text text-anchor="start" x="2812.2849" y="-886.3" font-family="Times,serif" font-size="14.00" fill="#000000"> &#160;&#160;_supportedInterfaces: mapping(bytes4=&gt;bool)</text>
<polyline fill="none" stroke="#000000" points="2804.2849,-878.1 3091.1079,-878.1 "/>
<text text-anchor="start" x="2812.2849" y="-861.5" font-family="Times,serif" font-size="14.00" fill="#000000">Internal:</text>
<text text-anchor="start" x="2812.2849" y="-844.7" font-family="Times,serif" font-size="14.00" fill="#000000"> &#160;&#160;&#160;_registerInterface(interfaceId: bytes4)</text>
<text text-anchor="start" x="2812.2849" y="-827.9" font-family="Times,serif" font-size="14.00" fill="#000000">Public:</text>
<text text-anchor="start" x="2812.2849" y="-811.1" font-family="Times,serif" font-size="14.00" fill="#000000"> &#160;&#160;&#160;constructor()</text>
<text text-anchor="start" x="2812.2849" y="-794.3" font-family="Times,serif" font-size="14.00" fill="#000000"> &#160;&#160;&#160;supportsInterface(interfaceId: bytes4): bool</text>
</g>
<!-- 12&#45;&gt;7 -->
<g id="edge12" class="edge">
<title>12&#45;&gt;7</title>
<path fill="none" stroke="#000000" stroke-dasharray="5,2" d="M2907.6598,-961.3523C2881.0534,-1012.5832 2842.2833,-1075.9046 2794.6964,-1121.4 2757.6569,-1156.8116 2711.1374,-1186.9917 2666.5769,-1211.179"/>
<polygon fill="none" stroke="#000000" points="2661.6615,-1201.9003 2639.9232,-1225.0886 2671.3773,-1220.5176 2661.6615,-1201.9003"/>
</g>
<!-- 13 -->
<g id="node14" class="node">
<title>13</title>
<polygon fill="#f2f2f2" stroke="#000000" points="1504.353,-263.1 1504.353,-589.5 2009.0398,-589.5 2009.0398,-263.1 1504.353,-263.1"/>
<text text-anchor="middle" x="1756.6964" y="-572.9" font-family="Times,serif" font-size="14.00" fill="#000000">ERC1363</text>
<polyline fill="none" stroke="#000000" points="1504.353,-564.7 2009.0398,-564.7 "/>
<text text-anchor="start" x="1512.353" y="-548.1" font-family="Times,serif" font-size="14.00" fill="#000000">Private:</text>
<text text-anchor="start" x="1512.353" y="-531.3" font-family="Times,serif" font-size="14.00" fill="#000000"> &#160;&#160;_ERC1363_RECEIVED: bytes4</text>
<text text-anchor="start" x="1512.353" y="-514.5" font-family="Times,serif" font-size="14.00" fill="#000000"> &#160;&#160;_ERC1363_APPROVED: bytes4</text>
<text text-anchor="start" x="1512.353" y="-497.7" font-family="Times,serif" font-size="14.00" fill="#000000">Internal:</text>
<text text-anchor="start" x="1512.353" y="-480.9" font-family="Times,serif" font-size="14.00" fill="#000000"> &#160;&#160;_INTERFACE_ID_ERC1363_TRANSFER: bytes4</text>
<text text-anchor="start" x="1512.353" y="-464.1" font-family="Times,serif" font-size="14.00" fill="#000000"> &#160;&#160;_INTERFACE_ID_ERC1363_APPROVE: bytes4</text>
<polyline fill="none" stroke="#000000" points="1504.353,-455.9 2009.0398,-455.9 "/>
<text text-anchor="start" x="1512.353" y="-439.3" font-family="Times,serif" font-size="14.00" fill="#000000">Internal:</text>
<text text-anchor="start" x="1512.353" y="-422.5" font-family="Times,serif" font-size="14.00" fill="#000000"> &#160;&#160;&#160;_checkAndCallTransfer(from: address, to: address, value: uint256, data: bytes): bool</text>
<text text-anchor="start" x="1512.353" y="-405.7" font-family="Times,serif" font-size="14.00" fill="#000000"> &#160;&#160;&#160;_checkAndCallApprove(spender: address, value: uint256, data: bytes): bool</text>
<text text-anchor="start" x="1512.353" y="-388.9" font-family="Times,serif" font-size="14.00" fill="#000000">Public:</text>
<text text-anchor="start" x="1512.353" y="-372.1" font-family="Times,serif" font-size="14.00" fill="#000000"> &#160;&#160;&#160;constructor(name: string, symbol: string)</text>
<text text-anchor="start" x="1512.353" y="-355.3" font-family="Times,serif" font-size="14.00" fill="#000000"> &#160;&#160;&#160;transferAndCall(to: address, value: uint256): bool</text>
<text text-anchor="start" x="1512.353" y="-338.5" font-family="Times,serif" font-size="14.00" fill="#000000"> &#160;&#160;&#160;transferAndCall(to: address, value: uint256, data: bytes): bool</text>
<text text-anchor="start" x="1512.353" y="-321.7" font-family="Times,serif" font-size="14.00" fill="#000000"> &#160;&#160;&#160;transferFromAndCall(from: address, to: address, value: uint256): bool</text>
<text text-anchor="start" x="1512.353" y="-304.9" font-family="Times,serif" font-size="14.00" fill="#000000"> &#160;&#160;&#160;transferFromAndCall(from: address, to: address, value: uint256, data: bytes): bool</text>
<text text-anchor="start" x="1512.353" y="-288.1" font-family="Times,serif" font-size="14.00" fill="#000000"> &#160;&#160;&#160;approveAndCall(spender: address, value: uint256): bool</text>
<text text-anchor="start" x="1512.353" y="-271.3" font-family="Times,serif" font-size="14.00" fill="#000000"> &#160;&#160;&#160;approveAndCall(spender: address, value: uint256, data: bytes): bool</text>
</g>
<!-- 13&#45;&gt;9 -->
<g id="edge17" class="edge">
<title>13&#45;&gt;9</title>
<path fill="none" stroke="#000000" stroke-dasharray="5,2" d="M1678.8944,-589.7208C1642.4205,-666.333 1601.0939,-753.1384 1573.8385,-810.3875"/>
<polygon fill="#000000" stroke="#000000" points="1570.5591,-809.1335 1569.4206,-819.667 1576.8794,-812.1425 1570.5591,-809.1335"/>
</g>
<!-- 13&#45;&gt;3 -->
<g id="edge16" class="edge">
<title>13&#45;&gt;3</title>
<path fill="none" stroke="#000000" stroke-dasharray="5,2" d="M1504.3421,-586.6633C1501.4589,-587.8083 1498.5765,-588.9212 1495.6964,-590 1399.626,-625.9849 1340.0786,-553.3002 1267.6964,-626 1110.5309,-783.855 1309.6284,-932.4258 1191.6964,-1121.4 1183.3335,-1134.8008 1173.3679,-1147.3627 1162.3503,-1159.08"/>
<polygon fill="#000000" stroke="#000000" points="1159.8234,-1156.658 1155.3591,-1166.2664 1164.8409,-1161.5391 1159.8234,-1156.658"/>
</g>
<!-- 13&#45;&gt;4 -->
<g id="edge13" class="edge">
<title>13&#45;&gt;4</title>
<path fill="none" stroke="#000000" d="M1503.9946,-586.8899C1501.2278,-587.9577 1498.4613,-588.9951 1495.6964,-590 1385.6424,-630.0013 1340.6558,-576.1542 1234.6964,-626 1225.7744,-630.1971 1216.9429,-634.7941 1208.2238,-639.727"/>
<polygon fill="none" stroke="#000000" points="1202.5643,-630.88 1182.4253,-655.4701 1213.5033,-648.8059 1202.5643,-630.88"/>
</g>
<!-- 13&#45;&gt;8 -->
<g id="edge14" class="edge">
<title>13&#45;&gt;8</title>
<path fill="none" stroke="#000000" stroke-dasharray="5,2" d="M1873.2168,-589.7208C1911.7381,-643.7471 1953.8736,-702.8426 1989.6842,-753.0673"/>
<polygon fill="none" stroke="#000000" points="1981.2794,-759.3658 2007.2453,-777.6968 1998.3781,-747.1742 1981.2794,-759.3658"/>
</g>
<!-- 13&#45;&gt;10 -->
<g id="edge18" class="edge">
<title>13&#45;&gt;10</title>
<path fill="none" stroke="#000000" stroke-dasharray="5,2" d="M2009.2008,-586.5518C2012.3664,-587.7429 2015.5322,-588.8932 2018.6964,-590 2150.8719,-636.2336 2206.6188,-563.0437 2331.6964,-626 2414.966,-667.9127 2483.9258,-752.6332 2524.4569,-811.2379"/>
<polygon fill="#000000" stroke="#000000" points="2521.698,-813.404 2530.229,-819.6867 2527.4779,-809.4553 2521.698,-813.404"/>
</g>
<!-- 13&#45;&gt;12 -->
<g id="edge15" class="edge">
<title>13&#45;&gt;12</title>
<path fill="none" stroke="#000000" d="M2009.0984,-586.8614C2012.2964,-587.9545 2015.4963,-589.0016 2018.6964,-590 2101.0945,-615.7065 2720.307,-582.2222 2794.6964,-626 2845.0266,-655.6191 2881.0911,-708.9559 2905.515,-758.5692"/>
<polygon fill="none" stroke="#000000" points="2896.0258,-763.0663 2918.0693,-785.9647 2915.1167,-754.3177 2896.0258,-763.0663"/>
</g>
<!-- 14 -->
<g id="node15" class="node">
<title>14</title>
<polygon fill="#f2f2f2" stroke="#000000" points="244.2594,-777.7 244.2594,-969.7 729.1334,-969.7 729.1334,-777.7 244.2594,-777.7"/>
<text text-anchor="middle" x="486.6964" y="-953.1" font-family="Times,serif" font-size="14.00" fill="#000000">Ownable</text>
<polyline fill="none" stroke="#000000" points="244.2594,-944.9 729.1334,-944.9 "/>
<text text-anchor="start" x="252.2594" y="-928.3" font-family="Times,serif" font-size="14.00" fill="#000000">Private:</text>
<text text-anchor="start" x="252.2594" y="-911.5" font-family="Times,serif" font-size="14.00" fill="#000000"> &#160;&#160;_owner: address</text>
<polyline fill="none" stroke="#000000" points="244.2594,-903.3 729.1334,-903.3 "/>
<text text-anchor="start" x="252.2594" y="-886.7" font-family="Times,serif" font-size="14.00" fill="#000000">Public:</text>
<text text-anchor="start" x="252.2594" y="-869.9" font-family="Times,serif" font-size="14.00" fill="#000000"> &#160;&#160;&#160;&lt;&lt;event&gt;&gt; OwnershipTransferred(previousOwner: address, newOwner: address)</text>
<text text-anchor="start" x="252.2594" y="-853.1" font-family="Times,serif" font-size="14.00" fill="#000000"> &#160;&#160;&#160;&lt;&lt;modifier&gt;&gt; onlyOwner()</text>
<text text-anchor="start" x="252.2594" y="-836.3" font-family="Times,serif" font-size="14.00" fill="#000000"> &#160;&#160;&#160;constructor()</text>
<text text-anchor="start" x="252.2594" y="-819.5" font-family="Times,serif" font-size="14.00" fill="#000000"> &#160;&#160;&#160;owner(): address</text>
<text text-anchor="start" x="252.2594" y="-802.7" font-family="Times,serif" font-size="14.00" fill="#000000"> &#160;&#160;&#160;renounceOwnership()</text>
<text text-anchor="start" x="252.2594" y="-785.9" font-family="Times,serif" font-size="14.00" fill="#000000"> &#160;&#160;&#160;transferOwnership(newOwner: address)</text>
</g>
<!-- 14&#45;&gt;0 -->
<g id="edge19" class="edge">
<title>14&#45;&gt;0</title>
<path fill="none" stroke="#000000" d="M486.6964,-969.7741C486.6964,-1035.2223 486.6964,-1121.4029 486.6964,-1186.1722"/>
<polygon fill="none" stroke="#000000" points="476.1965,-1186.5131 486.6964,-1216.5131 497.1965,-1186.5131 476.1965,-1186.5131"/>
</g>
<!-- 15 -->
<g id="node16" class="node">
<title>15</title>
<polygon fill="#f2f2f2" stroke="#000000" points="1103.1851,-380.7 1103.1851,-471.9 1486.2077,-471.9 1486.2077,-380.7 1103.1851,-380.7"/>
<text text-anchor="middle" x="1294.6964" y="-455.3" font-family="Times,serif" font-size="14.00" fill="#000000">TokenRecover</text>
<polyline fill="none" stroke="#000000" points="1103.1851,-447.1 1486.2077,-447.1 "/>
<text text-anchor="middle" x="1294.6964" y="-430.5" font-family="Times,serif" font-size="14.00" fill="#000000"> </text>
<polyline fill="none" stroke="#000000" points="1103.1851,-422.3 1486.2077,-422.3 "/>
<text text-anchor="start" x="1111.1851" y="-405.7" font-family="Times,serif" font-size="14.00" fill="#000000">Public:</text>
<text text-anchor="start" x="1111.1851" y="-388.9" font-family="Times,serif" font-size="14.00" fill="#000000"> &#160;&#160;&#160;recoverERC20(tokenAddress: address, tokenAmount: uint256)</text>
</g>
<!-- 15&#45;&gt;1 -->
<g id="edge21" class="edge">
<title>15&#45;&gt;1</title>
<path fill="none" stroke="#000000" stroke-dasharray="5,2" d="M1278.0906,-472.0319C1238.7693,-588.5333 1151.641,-902.7123 1267.6964,-1121.4 1273.0093,-1131.4113 1279.2732,-1140.9033 1286.2721,-1149.888"/>
<polygon fill="#000000" stroke="#000000" points="1283.5733,-1152.1167 1292.6065,-1157.6533 1288.9976,-1147.692 1283.5733,-1152.1167"/>
</g>
<!-- 15&#45;&gt;14 -->
<g id="edge20" class="edge">
<title>15&#45;&gt;14</title>
<path fill="none" stroke="#000000" d="M1253.799,-472.0756C1216.307,-510.7011 1157.1192,-563.7718 1093.6964,-590 946.7379,-650.774 881.5931,-558.2947 737.6964,-626 675.5477,-655.2418 619.666,-706.4247 576.4941,-754.7021"/>
<polygon fill="none" stroke="#000000" points="568.3072,-748.1176 556.6576,-777.6902 584.2062,-761.8369 568.3072,-748.1176"/>
</g>
<!-- 16 -->
<g id="node17" class="node">
<title>16</title>
<polygon fill="#f2f2f2" stroke="#000000" points="2027.4449,-380.7 2027.4449,-471.9 2245.9479,-471.9 2245.9479,-380.7 2027.4449,-380.7"/>
<text text-anchor="middle" x="2136.6964" y="-455.3" font-family="Times,serif" font-size="14.00" fill="#000000">Receiver</text>
<polyline fill="none" stroke="#000000" points="2027.4449,-447.1 2245.9479,-447.1 "/>
<text text-anchor="middle" x="2136.6964" y="-430.5" font-family="Times,serif" font-size="14.00" fill="#000000"> </text>
<polyline fill="none" stroke="#000000" points="2027.4449,-422.3 2245.9479,-422.3 "/>
<text text-anchor="start" x="2035.4449" y="-405.7" font-family="Times,serif" font-size="14.00" fill="#000000">Public:</text>
<text text-anchor="start" x="2035.4449" y="-388.9" font-family="Times,serif" font-size="14.00" fill="#000000"> &#160;&#160;&#160;constructor(feeReceiver: address)</text>
</g>
<!-- 17 -->
<g id="node18" class="node">
<title>17</title>
<polygon fill="#f2f2f2" stroke="#000000" points="951.1661,-.5 951.1661,-226.1 1638.2267,-226.1 1638.2267,-.5 951.1661,-.5"/>
<text text-anchor="middle" x="1294.6964" y="-209.5" font-family="Times,serif" font-size="14.00" fill="#000000">PowerfulERC20</text>
<polyline fill="none" stroke="#000000" points="951.1661,-201.3 1638.2267,-201.3 "/>
<text text-anchor="start" x="959.1661" y="-184.7" font-family="Times,serif" font-size="14.00" fill="#000000">Private:</text>
<text text-anchor="start" x="959.1661" y="-167.9" font-family="Times,serif" font-size="14.00" fill="#000000"> &#160;&#160;_mintingFinished: bool</text>
<polyline fill="none" stroke="#000000" points="951.1661,-159.7 1638.2267,-159.7 "/>
<text text-anchor="start" x="959.1661" y="-143.1" font-family="Times,serif" font-size="14.00" fill="#000000">Internal:</text>
<text text-anchor="start" x="959.1661" y="-126.3" font-family="Times,serif" font-size="14.00" fill="#000000"> &#160;&#160;&#160;_beforeTokenTransfer(from: address, to: address, amount: uint256)</text>
<text text-anchor="start" x="959.1661" y="-109.5" font-family="Times,serif" font-size="14.00" fill="#000000">Public:</text>
<text text-anchor="start" x="959.1661" y="-92.7" font-family="Times,serif" font-size="14.00" fill="#000000"> &#160;&#160;&#160;&lt;&lt;event&gt;&gt; MintFinished()</text>
<text text-anchor="start" x="959.1661" y="-75.9" font-family="Times,serif" font-size="14.00" fill="#000000"> &#160;&#160;&#160;&lt;&lt;modifier&gt;&gt; canMint()</text>
<text text-anchor="start" x="959.1661" y="-59.1" font-family="Times,serif" font-size="14.00" fill="#000000"> &#160;&#160;&#160;constructor(name: string, symbol: string, decimals: uint8, cap: uint256, initialBalance: uint256, feeReceiver: address)</text>
<text text-anchor="start" x="959.1661" y="-42.3" font-family="Times,serif" font-size="14.00" fill="#000000"> &#160;&#160;&#160;mintingFinished(): bool</text>
<text text-anchor="start" x="959.1661" y="-25.5" font-family="Times,serif" font-size="14.00" fill="#000000"> &#160;&#160;&#160;mint(to: address, value: uint256)</text>
<text text-anchor="start" x="959.1661" y="-8.7" font-family="Times,serif" font-size="14.00" fill="#000000"> &#160;&#160;&#160;finishMinting()</text>
</g>
<!-- 17&#45;&gt;5 -->
<g id="edge23" class="edge">
<title>17&#45;&gt;5</title>
<path fill="none" stroke="#000000" d="M951.0557,-157.406C854.9572,-179.5469 753.4369,-212.7691 667.6964,-262.6 633.9319,-282.2233 603.1203,-311.6302 578.1379,-340.1297"/>
<polygon fill="none" stroke="#000000" points="569.7073,-333.8454 558.587,-363.6211 585.8485,-347.2791 569.7073,-333.8454"/>
</g>
<!-- 17&#45;&gt;6 -->
<g id="edge22" class="edge">
<title>17&#45;&gt;6</title>
<path fill="none" stroke="#000000" d="M1142.2242,-226.1458C1125.8157,-238.4115 1109.3901,-250.7421 1093.6964,-262.6 1069.2197,-281.0943 1043.2588,-300.8922 1018.1924,-320.1028"/>
<polygon fill="none" stroke="#000000" points="1011.4185,-312.0657 994.0143,-338.6617 1024.2052,-328.724 1011.4185,-312.0657"/>
</g>
<!-- 17&#45;&gt;13 -->
<g id="edge24" class="edge">
<title>17&#45;&gt;13</title>
<path fill="none" stroke="#000000" d="M1461.489,-226.3002C1471.033,-232.7662 1480.7359,-239.3398 1490.5251,-245.9718"/>
<polygon fill="none" stroke="#000000" points="1485.0543,-254.9482 1515.7804,-263.082 1496.8329,-237.5625 1485.0543,-254.9482"/>
</g>
<!-- 17&#45;&gt;15 -->
<g id="edge25" class="edge">
<title>17&#45;&gt;15</title>
<path fill="none" stroke="#000000" d="M1294.6964,-226.3002C1294.6964,-267.4724 1294.6964,-313.0078 1294.6964,-350.2162"/>
<polygon fill="none" stroke="#000000" points="1284.1965,-350.4519 1294.6964,-380.4519 1305.1965,-350.4519 1284.1965,-350.4519"/>
</g>
<!-- 17&#45;&gt;16 -->
<g id="edge26" class="edge">
<title>17&#45;&gt;16</title>
<path fill="none" stroke="#000000" d="M1638.6845,-224.6965C1641.6979,-225.3465 1644.7024,-225.9813 1647.6964,-226.6 1728.5975,-243.3184 1945.9892,-221.5808 2017.6964,-262.6 2054.0944,-283.421 2082.4182,-320.406 2102.2855,-353.959"/>
<polygon fill="none" stroke="#000000" points="2093.0928,-359.0333 2116.6871,-380.3302 2111.5235,-348.968 2093.0928,-359.0333"/>
</g>
</g>
</svg>
